<?xml version="1.0" encoding="UTF-8"?>
<svg version="1.1" xmlns="http://www.w3.org/2000/svg" width="4500" height="4500">
<path d="M0 0 C3.29978036 0.22478563 6.59989583 0.44210181 9.90040684 0.65574455 C108.2669112 7.02830497 205.9958083 19.43690949 302.76489258 38.25646973 C303.78721985 38.45436096 304.80954712 38.6522522 305.862854 38.85614014 C402.36258778 57.54990704 497.42573488 83.20722196 590.48803711 114.80627441 C593.32836892 115.77066502 596.17042508 116.72964697 599.0144043 117.68322754 C670.14267713 141.53516338 739.873718 169.86126155 807.92840576 201.40661621 C810.95061163 202.80517364 813.97747998 204.19360294 817.00317383 205.58459473 C857.66809422 224.35133209 897.9728766 244.11895678 937.1574707 265.82189941 C941.00712404 267.93992966 944.8785485 270.01702366 948.74804688 272.09851074 C960.86829082 278.6242046 972.85585821 285.35362845 984.76489258 292.25646973 C985.66546387 292.77757324 986.56603516 293.29867676 987.49389648 293.83557129 C1035.26160191 321.50155641 1035.26160191 321.50155641 1057.48364258 335.79211426 C1060.85759899 337.95788808 1064.24398226 340.10398671 1067.62890625 342.25256348 C1070.41182932 344.02040496 1073.1921893 345.79221325 1075.97192383 347.56506348 C1079.92326702 350.08506306 1083.87972367 352.59678713 1087.83911133 355.10412598 C1102.68725469 364.52853524 1117.27258096 374.29495618 1131.76489258 384.25646973 C1133.23854681 385.26472685 1134.7124729 386.27258682 1136.18676758 387.27990723 C1152.13344688 398.18852497 1167.92724276 409.30757149 1183.56030273 420.6607666 C1185.75203915 422.24716629 1187.95059066 423.82360744 1190.15161133 425.39709473 C1201.09037665 433.2286411 1211.80446052 441.33097991 1222.48266602 449.51330566 C1225.39607172 451.73856419 1228.32743316 453.93806335 1231.26489258 456.13146973 C1246.46713078 467.50084901 1261.36142694 479.25770939 1276.07348633 491.25256348 C1279.06132316 493.68763151 1282.06336291 496.10384386 1285.07739258 498.50646973 C1293.13451861 504.93874201 1301.07796446 511.49699212 1308.93261719 518.17419434 C1312.30282274 521.03456232 1315.70488719 523.84880958 1319.13989258 526.63146973 C1325.48615912 531.80045784 1331.6441306 537.17946166 1337.81225586 542.55822754 C1339.74848068 544.24219602 1341.69102051 545.91854593 1343.63598633 547.59240723 C1350.57417612 553.56821151 1357.41087858 559.6277271 1364.13598633 565.84240723 C1366.31975573 567.84771108 1368.52453183 569.81513043 1370.76489258 571.75646973 C1374.6469613 575.12307704 1378.42840922 578.5961618 1382.20898438 582.07556152 C1385.31178208 584.92970804 1388.43355718 587.7599188 1391.57739258 590.56896973 C1396.96186716 595.40470804 1402.25145139 600.33929546 1407.53067017 605.28930664 C1410.24060506 607.82970513 1412.95413203 610.3661608 1415.67074585 612.89941406 C1425.80033227 622.36552982 1435.69634508 632.03945648 1445.49145508 641.85021973 C1447.01966098 643.37774917 1448.54801505 644.9051304 1450.07650757 646.43237305 C1453.24264906 649.59705761 1456.40701915 652.76349926 1459.57006836 655.93127441 C1463.60664555 659.97359207 1467.64775752 664.01134203 1471.69017982 668.04781342 C1474.83194256 671.18595342 1477.97130864 674.32648232 1481.10996628 677.46772766 C1482.59945883 678.95788247 1484.08968116 680.44730822 1485.58067703 681.93595886 C1487.6609605 684.01368254 1489.73797843 686.09461891 1491.81420898 688.1763916 C1492.41688599 688.77704437 1493.01956299 689.37769714 1493.64050293 689.99655151 C1497.33340629 693.70759513 1500.8289447 697.54497965 1504.2430172 701.51428986 C1506.15281351 703.70054554 1508.18186325 705.73562038 1510.26489258 707.75646973 C1513.67301846 711.06286051 1516.78677095 714.55024711 1519.89575195 718.13342285 C1522.9355125 721.58610803 1526.10169756 724.91717932 1529.26489258 728.25646973 C1533.65985177 732.89609675 1537.96761702 737.58661154 1542.1574707 742.41271973 C1544.32210472 744.89560492 1546.54045444 747.32714913 1548.76489258 749.75646973 C1555.29709078 756.92619478 1561.63052955 764.25345807 1567.93359375 771.62414551 C1571.20031579 775.44147276 1574.4866287 779.24089244 1577.78613281 783.02990723 C1582.77377774 788.75930447 1587.67224698 794.53908399 1592.45239258 800.44396973 C1595.19477454 803.77929914 1598.0069039 807.04970723 1600.82739258 810.31896973 C1604.84551272 814.9830155 1608.77749128 819.69352655 1612.59301758 824.52600098 C1614.27574593 826.64151738 1615.97329021 828.74026797 1617.68676758 830.83068848 C1623.9228429 838.4421174 1630.01743789 846.13582398 1635.96337891 853.97619629 C1639.45158791 858.56707535 1643.0130366 863.08709504 1646.63989258 867.56896973 C1651.88851937 874.07128541 1656.91748578 880.72472826 1661.91015625 887.42492676 C1665.87107701 892.73937603 1669.87152903 898.02031849 1673.90722656 903.27819824 C1680.40850465 911.75228866 1686.72707684 920.31564952 1692.83520508 929.07678223 C1695.94335861 933.53173214 1699.13398868 937.92493226 1702.32739258 942.31896973 C1707.29994656 949.17657305 1712.15519697 956.10386123 1716.92724609 963.10217285 C1718.71459755 965.72198726 1720.50762355 968.33766712 1722.30932617 970.94763184 C1728.88344117 980.47130237 1735.35436404 990.05955143 1741.76489258 999.69396973 C1742.24522949 1000.41525055 1742.72556641 1001.13653137 1743.22045898 1001.87966919 C1749.69703964 1011.60677384 1756.16072712 1021.34039865 1762.44702148 1031.1920166 C1763.94861404 1033.54427052 1765.45660201 1035.89237864 1766.96411133 1038.24084473 C1781.72425924 1061.28393684 1795.90328158 1084.66344202 1809.76489258 1108.25646973 C1810.37075195 1109.2851416 1810.97661133 1110.31381348 1811.60083008 1111.37365723 C1824.46606524 1133.22770298 1836.80679678 1155.35369716 1848.82714844 1177.68249512 C1850.34630213 1180.49352834 1851.88327404 1183.29448926 1853.42333984 1186.09411621 C1860.66002807 1199.26532788 1867.63872629 1212.54943104 1874.45239258 1225.94396973 C1874.96824921 1226.95638733 1875.48410583 1227.96880493 1876.01559448 1229.01190186 C1890.00781506 1256.48787702 1903.45875008 1284.16181989 1916.08131409 1312.29367065 C1918.0816077 1316.74918407 1920.10534778 1321.19330055 1922.14379883 1325.63146973 C1956.04300097 1399.57453591 1984.54305763 1475.95697186 2009.76489258 1553.25646973 C2010.01779053 1554.03000793 2010.27068848 1554.80354614 2010.53125 1555.6005249 C2038.5195224 1641.2743644 2060.62647829 1728.78988263 2077.76489258 1817.25646973 C2077.96407288 1818.28137512 2078.16325317 1819.30628052 2078.36846924 1820.36224365 C2096.76024846 1915.16256103 2108.80657048 2011.37130847 2114.55200195 2107.77172852 C2114.76204848 2111.20991559 2114.98788312 2114.64672236 2115.21801758 2118.08361816 C2120.7513149 2201.98317483 2120.91914815 2288.35432698 2115.0213623 2379.49157715 C2114.79657667 2382.79135751 2114.5792605 2386.09147298 2114.36561775 2389.39198399 C2107.99305734 2487.75848834 2095.58445282 2585.48738545 2076.76489258 2682.25646973 C2076.56700134 2683.278797 2076.36911011 2684.30112427 2076.16522217 2685.35443115 C2057.47145526 2781.85416493 2031.81414034 2876.91731202 2000.21508789 2969.97961426 C1999.25069729 2972.81994607 1998.29171533 2975.66200223 1997.33813477 2978.50598145 C1973.48619892 3049.63425428 1945.16010075 3119.36529514 1913.61474609 3187.41998291 C1912.21618866 3190.44218878 1910.82775936 3193.46905713 1909.43676758 3196.49475098 C1890.67003021 3237.15967137 1870.90240552 3277.46445375 1849.19946289 3316.64904785 C1847.08143265 3320.49870118 1845.00433865 3324.37012565 1842.92285156 3328.23962402 C1836.3971577 3340.35986797 1829.66773386 3352.34743536 1822.76489258 3364.25646973 C1822.24378906 3365.15704102 1821.72268555 3366.0576123 1821.18579102 3366.98547363 C1793.51980589 3414.75317906 1793.51980589 3414.75317906 1779.22924805 3436.97521973 C1777.06347423 3440.34917614 1774.91737559 3443.7355594 1772.76879883 3447.1204834 C1771.00095735 3449.90340647 1769.22914906 3452.68376644 1767.45629883 3455.46350098 C1764.93629924 3459.41484417 1762.42457518 3463.37130081 1759.91723633 3467.33068848 C1750.49282707 3482.17883184 1740.72640613 3496.76415811 1730.76489258 3511.25646973 C1729.75663546 3512.73012395 1728.74877549 3514.20405005 1727.74145508 3515.67834473 C1716.83283734 3531.62502403 1705.71379081 3547.41881991 1694.3605957 3563.05187988 C1692.77419601 3565.2436163 1691.19775487 3567.44216781 1689.62426758 3569.64318848 C1681.7927212 3580.58195379 1673.69038239 3591.29603767 1665.50805664 3601.97424316 C1663.28279811 3604.88764887 1661.08329895 3607.81901031 1658.88989258 3610.75646973 C1647.5205133 3625.95870793 1635.76365291 3640.85300409 1623.76879883 3655.56506348 C1621.33373079 3658.55290031 1618.91751845 3661.55494006 1616.51489258 3664.56896973 C1610.08262029 3672.62609576 1603.52437019 3680.56954161 1596.84716797 3688.42419434 C1593.98679999 3691.79439989 1591.17255273 3695.19646434 1588.38989258 3698.63146973 C1583.22090447 3704.97773627 1577.84190064 3711.13570775 1572.46313477 3717.30383301 C1570.77916629 3719.24005783 1569.10281637 3721.18259766 1567.42895508 3723.12756348 C1561.4531508 3730.06575327 1555.39363521 3736.90245573 1549.17895508 3743.62756348 C1547.17365123 3745.81133288 1545.20623187 3748.01610897 1543.26489258 3750.25646973 C1539.89828526 3754.13853845 1536.4252005 3757.91998637 1532.94580078 3761.70056152 C1530.09165427 3764.80335922 1527.26144351 3767.92513433 1524.45239258 3771.06896973 C1519.61665426 3776.4534443 1514.68206685 3781.74302854 1509.73205566 3787.02224731 C1507.19165718 3789.73218221 1504.6552015 3792.44570918 1502.12194824 3795.162323 C1492.65583248 3805.29190942 1482.98190582 3815.18792223 1473.17114258 3824.98303223 C1471.64361313 3826.51123813 1470.1162319 3828.0395922 1468.58898926 3829.56808472 C1465.42430469 3832.7342262 1462.25786305 3835.8985963 1459.09008789 3839.06164551 C1455.04777023 3843.0982227 1451.01002027 3847.13933467 1446.97354889 3851.18175697 C1443.83540889 3854.32351971 1440.69487998 3857.46288579 1437.55363464 3860.60154343 C1436.06347984 3862.09103598 1434.57405408 3863.58125831 1433.08540344 3865.07225418 C1431.00767976 3867.15253765 1428.92674339 3869.22955558 1426.8449707 3871.30578613 C1426.24431793 3871.90846313 1425.64366516 3872.51114014 1425.02481079 3873.13208008 C1421.31376717 3876.82498344 1417.47638266 3880.32052185 1413.50707245 3883.73459435 C1411.32081677 3885.64439066 1409.28574192 3887.6734404 1407.26489258 3889.75646973 C1403.9585018 3893.16459561 1400.4711152 3896.2783481 1396.88793945 3899.3873291 C1393.43525427 3902.42708965 1390.10418299 3905.59327471 1386.76489258 3908.75646973 C1382.12526555 3913.15142892 1377.43475076 3917.45919417 1372.60864258 3921.64904785 C1370.12575739 3923.81368187 1367.69421317 3926.03203159 1365.26489258 3928.25646973 C1358.09516752 3934.78866793 1350.76790423 3941.1221067 1343.3972168 3947.4251709 C1339.57988954 3950.69189294 1335.78046986 3953.97820585 1331.99145508 3957.27770996 C1326.26205783 3962.26535489 1320.48227831 3967.16382413 1314.57739258 3971.94396973 C1311.24206316 3974.68635169 1307.97165507 3977.49848105 1304.70239258 3980.31896973 C1300.0383468 3984.33708987 1295.32783575 3988.26906843 1290.49536133 3992.08459473 C1288.37984493 3993.76732308 1286.28109433 3995.46486736 1284.19067383 3997.17834473 C1276.57924491 4003.41442005 1268.88553832 4009.50901504 1261.04516602 4015.45495605 C1256.45428695 4018.94316505 1251.93426727 4022.50461375 1247.45239258 4026.13146973 C1240.95007689 4031.38009652 1234.29663404 4036.40906293 1227.59643555 4041.4017334 C1222.28198627 4045.36265415 1217.00104382 4049.36310617 1211.74316406 4053.39880371 C1203.26907365 4059.9000818 1194.70571278 4066.21865399 1185.94458008 4072.32678223 C1181.48963017 4075.43493575 1177.09643004 4078.62556583 1172.70239258 4081.81896973 C1165.84478925 4086.79152371 1158.91750107 4091.64677412 1151.91918945 4096.41882324 C1149.29937505 4098.20617469 1146.68369518 4099.99920069 1144.07373047 4101.80090332 C1134.55005993 4108.37501832 1124.96181087 4114.84594119 1115.32739258 4121.25646973 C1114.24547134 4121.9769751 1114.24547134 4121.9769751 1113.14169312 4122.71203613 C1103.41458847 4129.18861679 1093.68096365 4135.65230427 1083.8293457 4141.93859863 C1081.47709179 4143.44019119 1079.12898366 4144.94817916 1076.78051758 4146.45568848 C1053.73742546 4161.21583639 1030.35792029 4175.39485872 1006.76489258 4189.25646973 C1005.7362207 4189.8623291 1004.70754883 4190.46818848 1003.64770508 4191.09240723 C981.79365932 4203.95764239 959.66766514 4216.29837393 937.33886719 4228.31872559 C934.52783396 4229.83787927 931.72687305 4231.37485119 928.92724609 4232.91491699 C915.75603442 4240.15160522 902.47193126 4247.13030344 889.07739258 4253.94396973 C887.55876617 4254.71775467 887.55876617 4254.71775467 886.00946045 4255.50717163 C858.53348528 4269.49939221 830.85954242 4282.95032723 802.72769165 4295.57289124 C798.27217823 4297.57318485 793.82806175 4299.59692493 789.38989258 4301.63537598 C715.44682639 4335.53457812 639.06439045 4364.03463478 561.76489258 4389.25646973 C560.99135437 4389.50936768 560.21781616 4389.76226562 559.4208374 4390.02282715 C473.74699791 4418.01109954 386.23147968 4440.11805543 297.76489258 4457.25646973 C296.73998718 4457.45565002 295.71508179 4457.65483032 294.65911865 4457.86004639 C199.85880128 4476.25182561 103.65005384 4488.29814763 7.24963379 4494.0435791 C3.81144671 4494.25362563 0.37463995 4494.47946027 -3.06225586 4494.70959473 C-86.96181252 4500.24289205 -173.33296467 4500.4107253 -264.47021484 4494.51293945 C-267.76999521 4494.28815382 -271.07011068 4494.07083765 -274.37062168 4493.8571949 C-372.73712604 4487.48463449 -470.46602314 4475.07602997 -567.23510742 4456.25646973 C-568.25743469 4456.05857849 -569.27976196 4455.86068726 -570.33306885 4455.65679932 C-666.83280262 4436.96303241 -761.89594972 4411.30571749 -854.95825195 4379.70666504 C-857.79858377 4378.74227444 -860.64063992 4377.78329248 -863.48461914 4376.82971191 C-934.61289197 4352.97777607 -1004.34393284 4324.6516779 -1072.39862061 4293.10632324 C-1075.42082648 4291.70776581 -1078.44769483 4290.31933651 -1081.47338867 4288.92834473 C-1122.13830906 4270.16160736 -1162.44309145 4250.39398267 -1201.62768555 4228.69104004 C-1205.47733888 4226.5730098 -1209.34876334 4224.4959158 -1213.21826172 4222.41442871 C-1225.33850567 4215.88873485 -1237.32607305 4209.15931101 -1249.23510742 4202.25646973 C-1250.13567871 4201.73536621 -1251.03625 4201.2142627 -1251.96411133 4200.67736816 C-1299.73181676 4173.01138304 -1299.73181676 4173.01138304 -1321.95385742 4158.7208252 C-1325.32781384 4156.55505137 -1328.7141971 4154.40895274 -1332.09912109 4152.26037598 C-1334.88204416 4150.49253449 -1337.66240414 4148.72072621 -1340.44213867 4146.94787598 C-1344.39348186 4144.42787639 -1348.34993851 4141.91615233 -1352.30932617 4139.40881348 C-1367.15746954 4129.98440422 -1381.7427958 4120.21798328 -1396.23510742 4110.25646973 C-1397.70876165 4109.24821261 -1399.18268774 4108.24035264 -1400.65698242 4107.23303223 C-1416.60366172 4096.32441449 -1432.39745761 4085.20536796 -1448.03051758 4073.85217285 C-1450.22225399 4072.26577316 -1452.4208055 4070.68933201 -1454.62182617 4069.11584473 C-1465.56059149 4061.28429835 -1476.27467537 4053.18195954 -1486.95288086 4044.99963379 C-1489.86628656 4042.77437526 -1492.797648 4040.5748761 -1495.73510742 4038.38146973 C-1510.93734563 4027.01209045 -1525.83164178 4015.25523006 -1540.54370117 4003.26037598 C-1543.53153801 4000.82530794 -1546.53357775 3998.4090956 -1549.54760742 3996.00646973 C-1557.60473346 3989.57419744 -1565.54817931 3983.01594734 -1573.40283203 3976.33874512 C-1576.77303758 3973.47837713 -1580.17510204 3970.66412987 -1583.61010742 3967.88146973 C-1589.95637396 3962.71248162 -1596.11434545 3957.33347779 -1602.2824707 3951.95471191 C-1604.21869553 3950.27074344 -1606.16123536 3948.59439352 -1608.10620117 3946.92053223 C-1615.04439097 3940.94472795 -1621.88109343 3934.88521235 -1628.60620117 3928.67053223 C-1630.78997058 3926.66522837 -1632.99474667 3924.69780902 -1635.23510742 3922.75646973 C-1639.11717615 3919.38986241 -1642.89862407 3915.91677765 -1646.67919922 3912.43737793 C-1649.78199692 3909.58323141 -1652.90377202 3906.75302066 -1656.04760742 3903.94396973 C-1661.432082 3899.10823141 -1666.72166623 3894.17364399 -1672.00088501 3889.22363281 C-1674.71081991 3886.68323433 -1677.42434688 3884.14677865 -1680.14096069 3881.61352539 C-1690.27054712 3872.14740963 -1700.16655992 3862.47348297 -1709.96166992 3852.66271973 C-1711.48987582 3851.13519028 -1713.01822989 3849.60780905 -1714.54672241 3848.08056641 C-1717.7128639 3844.91588184 -1720.877234 3841.7494402 -1724.0402832 3838.58166504 C-1728.07686039 3834.53934738 -1732.11797236 3830.50159742 -1736.16039467 3826.46512604 C-1739.3021574 3823.32698604 -1742.44152348 3820.18645713 -1745.58018112 3817.04521179 C-1747.06967368 3815.55505699 -1748.559896 3814.06563123 -1750.05089188 3812.57698059 C-1752.13117534 3810.49925691 -1754.20819328 3808.41832054 -1756.28442383 3806.33654785 C-1756.88710083 3805.73589508 -1757.48977783 3805.13524231 -1758.11071777 3804.51638794 C-1761.80362113 3800.80534432 -1765.29915954 3796.96795981 -1768.71323204 3792.9986496 C-1770.62302836 3790.81239392 -1772.6520781 3788.77731907 -1774.73510742 3786.75646973 C-1778.1432333 3783.45007895 -1781.25698579 3779.96269235 -1784.3659668 3776.3795166 C-1787.40572735 3772.92683142 -1790.5719124 3769.59576014 -1793.73510742 3766.25646973 C-1798.13006662 3761.6168427 -1802.43783186 3756.92632791 -1806.62768555 3752.10021973 C-1808.79231956 3749.61733453 -1811.01066929 3747.18579032 -1813.23510742 3744.75646973 C-1819.76730563 3737.58674467 -1826.1007444 3730.25948138 -1832.40380859 3722.88879395 C-1835.67053063 3719.07146669 -1838.95684355 3715.27204701 -1842.25634766 3711.48303223 C-1847.24399258 3705.75363498 -1852.14246183 3699.97385546 -1856.92260742 3694.06896973 C-1859.66498938 3690.73364031 -1862.47711874 3687.46323222 -1865.29760742 3684.19396973 C-1869.31572757 3679.52992395 -1873.24770612 3674.8194129 -1877.06323242 3669.98693848 C-1878.74596077 3667.87142208 -1880.44350506 3665.77267148 -1882.15698242 3663.68225098 C-1888.39305774 3656.07082206 -1894.48765273 3648.37711547 -1900.43359375 3640.53674316 C-1903.92180275 3635.9458641 -1907.48325145 3631.42584441 -1911.11010742 3626.94396973 C-1916.35873422 3620.44165404 -1921.38770063 3613.78821119 -1926.38037109 3607.0880127 C-1930.34129185 3601.77356342 -1934.34174387 3596.49262097 -1938.37744141 3591.23474121 C-1944.87871949 3582.76065079 -1951.19729168 3574.19728993 -1957.30541992 3565.43615723 C-1960.41357345 3560.98120731 -1963.60420353 3556.58800719 -1966.79760742 3552.19396973 C-1971.77109013 3545.3350856 -1976.6271832 3538.40646293 -1981.40014648 3531.40686035 C-1983.17859496 3528.80010022 -1984.96259282 3526.19738874 -1986.75537109 3523.60046387 C-1993.56743856 3513.73254936 -2000.27412036 3503.7977288 -2006.92260742 3493.81896973 C-2007.44157593 3493.04054718 -2007.96054443 3492.26212463 -2008.49523926 3491.46011353 C-2016.99683682 3478.70071986 -2025.3642621 3465.86670041 -2033.55786133 3452.90686035 C-2035.12485297 3450.43069423 -2036.69992707 3447.95990953 -2038.27807617 3445.49084473 C-2072.08325678 3392.47598772 -2103.0928279 3337.58637749 -2131.89526367 3281.71350098 C-2133.92293869 3277.7822472 -2135.96677646 3273.8611374 -2138.04370117 3269.95568848 C-2153.3138381 3241.18708796 -2167.37170957 3211.74755911 -2180.65437317 3182.01358032 C-2182.61120775 3177.63517025 -2184.59632236 3173.2706124 -2186.59838867 3168.91271973 C-2220.5103652 3094.96362023 -2249.00999852 3018.56600156 -2274.23510742 2941.25646973 C-2274.48800537 2940.48293152 -2274.74090332 2939.70939331 -2275.00146484 2938.91241455 C-2302.98973724 2853.23857506 -2325.09669313 2765.72305683 -2342.23510742 2677.25646973 C-2342.43428772 2676.23156433 -2342.63346802 2675.20665894 -2342.83868408 2674.1506958 C-2361.23046331 2579.35037842 -2373.27678532 2483.14163098 -2379.0222168 2386.74121094 C-2379.23226333 2383.30302386 -2379.45809797 2379.86621709 -2379.68823242 2376.42932129 C-2385.22152974 2292.52976462 -2385.38936299 2206.15861248 -2379.49157715 2115.0213623 C-2379.26679151 2111.72158194 -2379.04947534 2108.42146647 -2378.8358326 2105.12095547 C-2372.57984042 2008.55379231 -2360.54964324 1912.52624254 -2251.23510742 1485.25646973 C-2250.92869324 1484.40534607 -2250.62227905 1483.55422241 -2250.30657959 1482.67730713 C-2228.83790259 1423.14570427 -2204.69884421 1364.50868498 -2178.08496094 1307.09295654 C-2176.68640351 1304.07075067 -2175.29797421 1301.04388232 -2173.90698242 1298.01818848 C-2155.14024505 1257.35326808 -2135.37262037 1217.0484857 -2113.66967773 1177.8638916 C-2111.55164749 1174.01423827 -2109.47455349 1170.14281381 -2107.39306641 1166.27331543 C-2100.86737255 1154.15307148 -2094.1379487 1142.1655041 -2087.23510742 1130.25646973 C-2086.71400391 1129.35589844 -2086.19290039 1128.45532715 -2085.65600586 1127.52746582 C-2057.99002074 1079.75976039 -2057.99002074 1079.75976039 -2043.69946289 1057.53771973 C-2041.53368907 1054.16376331 -2039.38759044 1050.77738005 -2037.23901367 1047.39245605 C-2035.47117219 1044.60953299 -2033.6993639 1041.82917301 -2031.92651367 1039.04943848 C-2029.40651409 1035.09809529 -2026.89479002 1031.14163864 -2024.38745117 1027.18225098 C-2014.96304191 1012.33410761 -2005.19662097 997.74878135 -1995.23510742 983.25646973 C-1994.2268503 981.7828155 -1993.21899033 980.3088894 -1992.21166992 978.83459473 C-1981.30305218 962.88791543 -1970.18400566 947.09411954 -1958.83081055 931.46105957 C-1957.24441086 929.26932315 -1955.66796971 927.07077164 -1954.09448242 924.86975098 C-1946.26293604 913.93098566 -1938.16059724 903.21690178 -1929.97827148 892.53869629 C-1927.75301296 889.62529058 -1925.5535138 886.69392915 -1923.36010742 883.75646973 C-1911.99072814 868.55423152 -1900.23386776 853.65993537 -1888.23901367 838.94787598 C-1885.80394563 835.96003914 -1883.38773329 832.9579994 -1880.98510742 829.94396973 C-1874.55283514 821.88684369 -1867.99458503 813.94339784 -1861.31738281 806.08874512 C-1858.45701483 802.71853957 -1855.64276757 799.31647511 -1852.86010742 795.88146973 C-1847.69111931 789.53520318 -1842.31211549 783.3772317 -1836.93334961 777.20910645 C-1835.24938113 775.27288162 -1833.57303122 773.33034179 -1831.89916992 771.38537598 C-1825.92336564 764.44718618 -1819.86385005 757.61048372 -1813.64916992 750.88537598 C-1811.64386607 748.70160657 -1809.67644672 746.49683048 -1807.73510742 744.25646973 C-1804.36850011 740.374401 -1800.89541535 736.59295308 -1797.41601562 732.81237793 C-1794.56186911 729.70958023 -1791.73165835 726.58780513 -1788.92260742 723.44396973 C-1784.08686911 718.05949515 -1779.15228169 712.76991091 -1774.20227051 707.49069214 C-1771.66187202 704.78075724 -1769.12541635 702.06723027 -1766.59216309 699.35061646 C-1757.12604733 689.22103003 -1747.45212067 679.32501722 -1737.64135742 669.52990723 C-1736.11382797 668.00170133 -1734.58644675 666.47334726 -1733.0592041 664.94485474 C-1729.89451954 661.77871325 -1726.72807789 658.61434315 -1723.56030273 655.45129395 C-1719.51798507 651.41471676 -1715.48023512 647.37360479 -1711.44376373 643.33118248 C-1708.30562373 640.18941974 -1705.16509482 637.05005367 -1702.02384949 633.91139603 C-1700.53369468 632.42190347 -1699.04426892 630.93168114 -1697.55561829 629.44068527 C-1695.47789461 627.36040181 -1693.39695823 625.28338387 -1691.31518555 623.20715332 C-1690.71453278 622.60447632 -1690.11388 622.00179932 -1689.49502563 621.38085938 C-1685.78398202 617.68795602 -1681.9465975 614.19241761 -1677.97728729 610.77834511 C-1675.79103161 608.86854879 -1673.75595677 606.83949905 -1671.73510742 604.75646973 C-1668.42871664 601.34834385 -1664.94133004 598.23459136 -1661.3581543 595.12561035 C-1657.90546912 592.0858498 -1654.57439783 588.91966474 -1651.23510742 585.75646973 C-1646.5954804 581.36151053 -1641.9049656 577.05374529 -1637.07885742 572.8638916 C-1634.59597223 570.69925758 -1632.16442802 568.48090786 -1629.73510742 566.25646973 C-1622.56538236 559.72427152 -1615.23811908 553.39083275 -1607.86743164 547.08776855 C-1604.05010439 543.82104652 -1600.25068471 540.5347336 -1596.46166992 537.23522949 C-1590.73227267 532.24758457 -1584.95249316 527.34911532 -1579.04760742 522.56896973 C-1575.71227801 519.82658776 -1572.44186991 517.01445841 -1569.17260742 514.19396973 C-1564.50856165 510.17584958 -1559.7980506 506.24387103 -1554.96557617 502.42834473 C-1552.85005977 500.74561637 -1550.75130917 499.04807209 -1548.66088867 497.33459473 C-1541.04945975 491.09851941 -1533.35575317 485.00392442 -1525.51538086 479.0579834 C-1520.9245018 475.5697744 -1516.40448211 472.0083257 -1511.92260742 468.38146973 C-1505.42029174 463.13284293 -1498.76684889 458.10387652 -1492.06665039 453.11120605 C-1486.75220112 449.1502853 -1481.47125866 445.14983328 -1476.21337891 441.11413574 C-1467.73928849 434.61285766 -1459.17592763 428.29428547 -1450.41479492 422.18615723 C-1445.95984501 419.0780037 -1441.56664489 415.88737362 -1437.17260742 412.69396973 C-1430.3131001 407.72003512 -1423.38386385 402.86349011 -1416.38354492 398.09020996 C-1413.78310713 396.31609235 -1411.18687758 394.53622544 -1408.59667969 392.74719238 C-1399.31511833 386.33735086 -1389.97036502 380.02780814 -1380.58105469 373.77697754 C-1378.30117331 372.25884419 -1376.02295105 370.73824496 -1373.74487305 369.21740723 C-1307.12990469 324.79654491 -1237.85154243 284.27894527 -1166.69213867 247.59631348 C-1162.76088489 245.56863846 -1158.8397751 243.52480069 -1154.93432617 241.44787598 C-1126.16572566 226.17773905 -1096.7261968 212.11986758 -1066.99221802 198.83720398 C-1062.61380795 196.88036939 -1058.2492501 194.89525478 -1053.89135742 192.89318848 C-979.94225792 158.98121195 -903.54463925 130.48157863 -826.23510742 105.25646973 C-825.46156921 105.00357178 -824.68803101 104.75067383 -823.89105225 104.4901123 C-738.21721275 76.50183991 -650.70169452 54.39488402 -562.23510742 37.25646973 C-560.69774933 36.95769928 -560.69774933 36.95769928 -559.1293335 36.65289307 C-464.32901612 18.26111384 -368.12026868 6.21479183 -271.71984863 0.46936035 C-268.28166156 0.25931382 -264.84485479 0.03347918 -261.40795898 -0.19665527 C-177.50840232 -5.72995259 -91.13725017 -5.89778584 0 0 Z " fill="#000000" transform="translate(2382.235107421875,2.7435302734375)"/>
<path d="M0 0 C0.66 0 1.32 0 2 0 C36.39885597 68.77571031 70.79734274 137.55160527 105.19555664 206.32763672 C105.53214176 207.00060733 105.86872688 207.67357794 106.21551155 208.36694159 C142.43623431 280.78690614 178.65660294 353.2070478 322.32024401 640.47153202 C323.51942324 642.86947357 324.71860281 645.26741496 325.91778249 647.66535629 C359.89600887 715.60996604 393.87392502 783.55473093 427.85142566 851.49970361 C429.10892947 854.01434007 430.36643329 856.52897651 431.62393713 859.04361295 C432.03926857 859.87415322 432.45460001 860.7046935 432.88251725 861.56040166 C448.4997882 892.79033135 464.11713005 924.02022558 479.73451421 955.25009865 C481.43138899 958.6433165 483.12826296 962.03653476 484.8251362 965.42975338 C524.88951269 1045.54604176 564.95516539 1125.66169155 605.02496338 1205.77526855 C605.65782689 1207.04058498 605.65782689 1207.04058498 606.30347553 1208.33146334 C620.33425778 1236.3839195 634.3651637 1264.43631381 648.39608667 1292.48869958 C661.07344487 1317.83486937 673.75075866 1343.18106137 686.42792606 1368.52732658 C687.0525803 1369.77623736 687.0525803 1369.77623736 687.68985381 1371.05037866 C713.76081829 1423.17573844 739.82986032 1475.30205932 765.89695644 1527.42935371 C766.50064919 1528.63657851 766.50064919 1528.63657851 767.11653776 1529.86819169 C784.78979421 1565.21000381 802.46264935 1600.55201659 820.1350453 1635.89425901 C827.24422137 1650.11158091 834.35345691 1664.32887306 841.46272502 1678.54614894 C842.64151697 1680.90352511 843.820307 1683.26090224 844.99909681 1685.61827948 C863.04159419 1721.70014182 881.08542213 1757.78133798 899.13309407 1793.86061239 C899.71741468 1795.02873341 899.71741468 1795.02873341 900.31353975 1796.22045283 C906.58042473 1808.74862334 912.84742017 1821.27673859 919.11443467 1833.80484431 C936.89562237 1869.35041391 954.67607207 1904.89635157 972.4508332 1940.44513535 C972.81113654 1941.16572613 973.17143987 1941.8863169 973.54266149 1942.62874376 C981.40135427 1958.34582221 989.25961039 1974.06311894 997.11743862 1989.78062965 C1000.25087435 1996.04822289 1003.38436997 2002.3157862 1006.51788521 2008.58333969 C1006.85970722 2009.26704466 1007.20152924 2009.95074963 1007.55370949 2010.65517294 C1018.41399478 2032.37760777 1029.27921871 2054.09756743 1040.14727506 2075.81611519 C1051.13441688 2097.77269224 1062.11609281 2119.73199372 1073.09100647 2141.69468569 C1079.34315514 2154.20587792 1085.59975076 2166.71482282 1091.86273201 2179.22059601 C1096.01043447 2187.5037049 1100.15243495 2195.78964754 1104.28961154 2204.0780188 C1106.64230467 2208.79096245 1108.99758028 2213.50256813 1111.35983441 2218.21072785 C1113.49761199 2222.4716012 1115.62816528 2226.73600082 1117.75269882 2231.0034926 C1118.52110927 2232.54368644 1119.29226815 2234.08251254 1120.06634096 2235.61986837 C1121.10751281 2237.68863748 1122.13890598 2239.76198456 1123.16778595 2241.83688723 C1123.74339712 2242.98785356 1124.3190083 2244.13881989 1124.91206224 2245.32466399 C1125.45059143 2246.64895532 1125.45059143 2246.64895532 1126 2248 C1125.505 2248.99 1125.505 2248.99 1125 2250 C1082.35304565 2228.77066794 1039.70871875 2207.53606866 997.0789032 2186.27233887 C996.44803106 2185.95766211 995.81715893 2185.64298536 995.16716946 2185.31877295 C981.45684216 2178.48007005 967.74700404 2171.64038703 954.03766956 2164.79969409 C947.31467342 2161.44505641 940.59156922 2158.09063535 933.8684082 2154.73632812 C932.86485461 2154.23563009 932.86485461 2154.23563009 931.8410272 2153.72481694 C910.15313997 2142.90431337 888.45815354 2132.0981343 866.75944202 2121.29935572 C844.46240071 2110.20271262 822.17259543 2099.09166725 799.89180198 2087.96243343 C796.74524804 2086.39074133 793.59861175 2084.81921419 790.45192528 2083.24778748 C789.83261098 2082.93850115 789.21329668 2082.62921483 788.57521528 2082.31055619 C778.60320969 2077.33105444 768.62368538 2072.36680585 758.64127019 2067.40821128 C748.6072526 2062.42357927 738.58149917 2057.42262881 728.56344042 2052.40597779 C723.13452656 2049.68799077 717.70225749 2046.97734769 712.26021194 2044.28573608 C707.27951555 2041.82211009 702.30936365 2039.338456 697.34686889 2036.83837837 C695.54848292 2035.93685736 693.74633413 2035.04279635 691.94017748 2034.15694624 C689.48670673 2032.95226036 687.04833324 2031.72121734 684.61182117 2030.48267365 C683.90620949 2030.14431638 683.2005978 2029.80595911 682.47360393 2029.45734859 C674.25036139 2025.19017319 671.04940483 2016.39370072 667.08294791 2008.41659415 C666.61129117 2007.47608531 666.13963444 2006.53557647 665.65368507 2005.56656736 C664.07237062 2002.41090428 662.49677128 1999.25242276 660.92112255 1996.09392738 C659.77299826 1993.79976501 658.62452352 1991.50577798 657.47572985 1989.21195072 C654.96980821 1984.20688762 652.466863 1979.20034501 649.96585139 1974.1928267 C646.22177498 1966.69648476 642.4730832 1959.20245757 638.72349186 1951.70887293 C632.33325428 1938.93759912 625.94681932 1926.16442718 619.56244659 1913.39022064 C613.09199265 1900.44381174 606.61980449 1887.49827204 600.14549446 1874.55379105 C599.73669064 1873.73644174 599.32788681 1872.91909244 598.906695 1872.07697498 C597.24172358 1868.74809868 595.57673982 1865.41922856 593.91174037 1862.09036629 C578.40104887 1831.0795642 562.8943046 1800.0667899 547.39008141 1769.05275345 C546.93059266 1768.13361037 546.47110392 1767.21446729 545.99769128 1766.2674714 C545.53747087 1765.34686473 545.07725047 1764.42625807 544.60308399 1763.47775423 C530.5914356 1735.44941436 516.57829324 1707.42182206 502.5636692 1679.39496994 C501.62578143 1677.51934934 500.68789391 1675.64372862 499.75000665 1673.76810776 C495.98121611 1666.2311476 492.212419 1658.69419071 488.44361231 1651.15723862 C477.90808548 1630.08801908 467.37283584 1609.01866093 456.83780384 1587.94919395 C456.35804565 1586.98970486 455.87828746 1586.03021577 455.38399114 1585.04165125 C440.09419105 1554.46286977 424.80562041 1523.88347377 409.51788616 1493.30365944 C408.77397957 1491.81563551 408.77397957 1491.81563551 408.01504457 1490.2975505 C399.96091812 1474.18700761 391.90685123 1458.07643494 383.85278937 1441.96585976 C351.89921528 1378.048996 319.94157329 1314.13416786 287.98022461 1250.22119141 C279.92425751 1234.11169947 271.86829849 1218.00220349 263.81239605 1201.89267921 C263.31640128 1200.90083057 262.82040651 1199.90898193 262.3093816 1198.88707726 C247.03131004 1168.33524448 231.75423028 1137.78291594 216.47823048 1107.23004723 C215.75922055 1105.79198662 215.75922055 1105.79198662 215.02568517 1104.32487429 C204.50500935 1083.28289778 193.98459043 1062.24079283 183.46440335 1041.19857196 C179.70053128 1033.6701695 175.93664634 1026.14177347 172.17275772 1018.61337929 C171.23635999 1016.74042905 170.29996333 1014.86747827 169.36356775 1012.99452696 C155.3513229 984.96764732 141.33730597 956.94165437 127.32208661 928.91626206 C126.86218389 927.99662221 126.40228117 927.07698236 125.928442 926.12947464 C125.46938378 925.21152356 125.01032556 924.29357248 124.53735648 923.34780471 C109.07798382 892.43456738 93.62161648 861.51982907 78.1686739 830.60337694 C76.51162765 827.28817967 74.85456885 823.97298867 73.19750023 820.65780258 C72.58746872 819.43734895 72.58746872 819.43734895 71.96511335 818.19223968 C65.5081712 805.27440038 59.04854087 792.35790726 52.58781095 779.44196204 C46.24538767 766.76238749 39.90579641 754.08140047 33.56928039 741.39887275 C29.84767951 733.95030771 26.12386423 726.50285956 22.3968606 719.05699635 C19.64033247 713.54936083 16.88791943 708.03967903 14.13719109 702.52914479 C13.02315315 700.29903539 11.90774095 698.06961189 10.79087219 695.84091886 C9.28701893 692.83952961 7.78801546 689.83576954 6.29030627 686.83131087 C5.84919725 685.95387431 5.40808823 685.07643775 4.95361226 684.1724122 C4.55978384 683.37983835 4.16595541 682.58726449 3.76019279 681.77067325 C3.41757739 681.08538652 3.07496199 680.40009978 2.7219643 679.69404678 C2 678 2 678 2 676 C1.34 676 0.68 676 0 676 C-0.35449229 677.19590822 -0.35449229 677.19590822 -0.71614604 678.41597619 C-2.32727133 682.91361501 -4.39988102 687.07906522 -6.54166329 691.34438092 C-7.00918635 692.28334975 -7.47670941 693.22231858 -7.95839983 694.18974101 C-9.53614921 697.35600813 -11.11959695 700.51939104 -12.70300484 703.68283176 C-13.84759529 705.97682723 -14.9918374 708.27099652 -16.13576138 710.5653244 C-18.63654896 715.57962753 -21.14031972 720.59243217 -23.64602365 725.60428024 C-27.39716323 733.10724279 -31.14374519 740.61247457 -34.88945347 748.11814976 C-41.27290281 760.90898792 -47.66021889 773.69789168 -54.04964638 786.48574448 C-60.52665642 799.44889682 -67.0019749 812.41289194 -73.47523689 825.37791634 C-73.88376074 826.19612669 -74.29228458 827.01433705 -74.71318794 827.85734166 C-76.37698015 831.1896678 -78.04076495 834.52199764 -79.70453911 837.8543328 C-100.34841994 879.20136456 -121.00165825 920.54371982 -141.65685923 961.88509741 C-147.26578579 973.11136387 -152.87453072 984.33772107 -158.48317519 995.56412846 C-193.22038127 1065.09499697 -227.96032806 1134.62449575 -262.70848059 1204.14989449 C-270.76466394 1220.26902879 -278.82075535 1236.38820904 -286.87680757 1252.50740887 C-287.88808716 1254.53085697 -288.89936831 1256.55430429 -289.91065101 1258.57775083 C-322.40065314 1323.5860654 -354.87528934 1388.60203755 -387.33958714 1453.62319201 C-410.66485227 1500.34020586 -433.99217174 1547.05618728 -457.33523369 1593.76431179 C-458.05497713 1595.20448064 -458.05497713 1595.20448064 -458.78926084 1596.67374382 C-469.32156655 1617.7482211 -479.85510379 1638.82208259 -490.38979636 1659.89536683 C-494.62822967 1668.37384785 -498.86650408 1676.85240831 -503.10473251 1685.33099174 C-503.56859192 1686.25893218 -504.03245133 1687.18687261 -504.51036708 1688.14293244 C-519.46447044 1718.0584656 -534.40496311 1747.98077092 -549.33847744 1777.90658649 C-564.37497149 1808.03857698 -579.42528258 1838.16362235 -594.49480427 1868.27910997 C-596.57545625 1872.43716761 -598.65595298 1876.59530289 -600.73635674 1880.75348473 C-601.14419217 1881.56862627 -601.55202761 1882.38376781 -601.9722217 1883.22361061 C-608.4390894 1896.14996491 -614.89110982 1909.08367111 -621.33702713 1922.02048315 C-627.67001362 1934.72988153 -634.01855425 1947.43140501 -640.38391215 1960.12462258 C-644.11885765 1967.57369229 -647.84154758 1975.02858851 -651.54665813 1982.49254444 C-654.29353874 1988.02278866 -657.06306543 1993.54138536 -659.84182572 1999.05567383 C-660.95926509 2001.28206745 -662.06924406 2003.51222405 -663.17105161 2005.7463949 C-664.66275172 2008.76848123 -666.1807456 2011.7758348 -667.70624173 2014.78096825 C-668.12829339 2015.65243295 -668.55034505 2016.52389766 -668.98518616 2017.42177039 C-671.98192634 2023.22617365 -675.18407509 2026.09255824 -681 2029 C-682.00718952 2029.53712423 -682.00718952 2029.53712423 -683.0347263 2030.08509945 C-684.96957166 2031.11345181 -686.92446829 2032.09277543 -688.88726044 2033.06667805 C-689.64275236 2033.44557785 -690.39824428 2033.82447766 -691.1766299 2034.21485928 C-693.69656285 2035.47746255 -696.21929643 2036.73436138 -698.74206543 2037.99128723 C-700.57230243 2038.90684203 -702.40236352 2039.82274857 -704.23226404 2040.7389757 C-709.2518929 2043.25102349 -714.27399895 2045.75808267 -719.29652643 2048.26432884 C-724.71574469 2050.96961703 -730.1326482 2053.67953281 -735.54983521 2056.3888855 C-744.93272997 2061.08085707 -754.31707083 2065.76992659 -763.70243835 2070.45694923 C-773.54370208 2075.37166022 -783.38413402 2080.28803034 -793.22346497 2085.20660973 C-793.83568033 2085.51264867 -794.44789568 2085.81868761 -795.07866303 2086.13400045 C-798.18790296 2087.68828208 -801.29712811 2089.24259327 -804.40634757 2090.79691585 C-826.418062 2101.80067372 -848.43162813 2112.80072239 -870.44628906 2123.79858398 C-891.83069297 2134.48159878 -913.21425429 2145.16629716 -934.59667969 2155.85327148 C-935.25600019 2156.18280021 -935.91532069 2156.51232894 -936.59462061 2156.85184338 C-943.21590198 2160.16116552 -949.83716626 2163.47052186 -956.45841803 2166.77990323 C-969.9461787 2173.52124748 -983.4340534 2180.26236358 -996.92199707 2187.00334167 C-997.54212485 2187.31326828 -998.16225264 2187.62319488 -998.80117217 2187.9425132 C-1040.19887123 2208.63216502 -1081.59923613 2229.31648178 -1123 2250 C-1123.33 2249.34 -1123.66 2248.68 -1124 2248 C-1122.91206224 2245.32466399 -1122.91206224 2245.32466399 -1121.16778595 2241.83688723 C-1120.8486675 2241.19333333 -1120.52954906 2240.54977943 -1120.20076035 2239.88672389 C-1119.11380372 2237.69972462 -1118.01539023 2235.51867711 -1116.9170776 2233.33736122 C-1116.12926536 2231.75827862 -1115.34215545 2230.17884547 -1114.55568904 2228.59909214 C-1112.36900374 2224.21195914 -1110.17224821 2219.82993295 -1107.97397391 2215.44859802 C-1105.58417235 2210.68117225 -1103.20361938 2205.90913141 -1100.82191667 2201.13765603 C-1096.62244042 2192.72772087 -1092.41695648 2184.32081117 -1088.20765997 2175.91578721 C-1081.90621547 2163.33313242 -1075.61396168 2150.74589785 -1069.32355945 2138.15771987 C-1058.60521896 2116.70914835 -1047.87927541 2095.26438707 -1037.1492424 2073.8216629 C-1026.26836676 2052.07743246 -1015.39097767 2030.33146318 -1004.51788521 2008.58333969 C-1004.17540728 2007.89832668 -1003.83292936 2007.21331366 -1003.48007331 2006.50754268 C-1000.34164475 2000.23015856 -997.20325516 1993.95275495 -994.06491203 1987.67532812 C-986.19402218 1971.93169565 -978.3226031 1956.18832782 -970.4508332 1940.44513535 C-970.09005752 1939.72359899 -969.72928184 1939.00206262 -969.35757357 1938.25866151 C-951.55768538 1902.65974254 -933.75178948 1867.0638291 -915.94551277 1831.46810532 C-909.67465251 1818.93230137 -903.40382075 1806.39648316 -897.13309407 1793.86061239 C-896.54840443 1792.6917537 -896.54840443 1792.6917537 -895.95190287 1791.49928171 C-877.90519545 1755.42184818 -859.86258737 1719.34236512 -841.82103313 1683.26235439 C-840.64150855 1680.90350826 -839.46198203 1678.5446631 -838.28245502 1676.18581818 C-831.17002233 1661.96220917 -824.05763239 1647.73857878 -816.94529183 1633.5149237 C-799.26297123 1598.15283808 -781.58013769 1562.79100897 -763.89695644 1527.42935371 C-763.4943628 1526.62427296 -763.09176916 1525.81919221 -762.6769757 1524.98971507 C-736.59595573 1472.83458695 -710.51282395 1420.68051531 -684.42792606 1368.52732658 C-684.01137176 1367.69448313 -683.59481745 1366.86163967 -683.16564029 1366.00355854 C-670.48505604 1340.650473 -657.80431559 1315.29746558 -645.1235446 1289.94447343 C-631.09062796 1261.88809993 -617.05773796 1233.83171311 -603.02496338 1205.77526855 C-602.60299972 1204.93161524 -602.18103607 1204.08796193 -601.74628564 1203.21874337 C-561.67837202 1123.10891187 -521.61475797 1042.99693042 -481.55225742 962.88439177 C-479.85560394 959.49161338 -478.15894921 956.09883561 -476.46229443 952.70605787 C-460.84945386 921.4852703 -445.23666379 890.26445748 -429.62393713 859.04361295 C-429.20878504 858.21343131 -428.79363294 857.38324968 -428.36590047 856.52791102 C-427.10893166 854.01434444 -425.85196286 851.50077785 -424.59499407 848.98721126 C-390.63626681 781.07978047 -356.67709914 713.17256994 -322.71764619 645.26550205 C-321.51942132 642.86946974 -320.3211968 640.47343725 -319.12297237 638.07740472 C-280.20224521 560.24947661 -241.28072467 482.42194535 -103.19555664 206.32763672 C-102.69001563 205.31685445 -102.69001563 205.31685445 -102.17426166 204.28565233 C-68.11647886 136.19028263 -34.05841796 68.09505202 0 0 Z " fill="#FEFEFE" transform="translate(2249,1042)"/>
</svg>
