<?xml version="1.0" encoding="UTF-8"?>
<svg version="1.1" xmlns="http://www.w3.org/2000/svg" width="6094" height="660">
<path d="M0 0 C10.29194918 -0.25536154 20.58314001 -0.45056193 30.87761688 -0.56993389 C35.65848509 -0.62724209 40.43717979 -0.70490008 45.21679688 -0.82983398 C49.83355379 -0.94974957 54.44822706 -1.01520264 59.06642151 -1.04364967 C60.82411 -1.06390769 62.58168973 -1.10347334 64.33848572 -1.16303062 C78.08780402 -1.61042091 78.08780402 -1.61042091 82.79377747 2.35287476 C84.85479718 5.15236385 86.44200264 7.89842763 88 11 C89.06628339 12.61817191 90.15037669 14.22493601 91.26171875 15.8125 C92.4055498 17.5404078 93.54734444 19.26966474 94.6875 21 C101.6989258 31.57867242 108.78480234 42.10558271 115.88980103 52.62158203 C126.89665911 68.91364607 137.84741159 85.24145704 148.73745728 101.61181641 C158.17356187 115.79431913 167.68886031 129.92162215 177.23422241 144.03076172 C188.11495856 160.12168621 198.82707658 176.32048932 209.46069336 192.57568359 C216.02574817 202.65309156 216.02574817 202.65309156 222.9765625 212.46484375 C228.54816792 219.97677662 233.56593517 227.87214961 238.68545532 235.69506836 C251.0965095 254.65457948 263.67889213 273.48993857 276.44067383 292.21484375 C279.98651973 297.45902909 283.48850227 302.7327534 287 308 C287.33 206.36 287.66 104.72 288 0 C309.78 0 331.56 0 354 0 C354 138.6 354 277.2 354 420 C329.91 420 305.82 420 281 420 C276.24487122 413.46169792 271.56038463 406.98331041 267.11328125 400.25 C266.5818602 399.45008636 266.05043915 398.65017273 265.50291443 397.82601929 C264.3633238 396.11046291 263.22471961 394.39425092 262.08703613 392.6774292 C259.00245504 388.02339746 255.9095475 383.37490784 252.81640625 378.7265625 C251.85605972 377.28308945 251.85605972 377.28308945 250.87631226 375.81045532 C243.87899486 365.30174729 236.81752473 354.83656448 229.75 344.375 C214.97076407 322.49418147 214.97076407 322.49418147 207.875 311.8125 C201.06943224 301.57125555 194.19473232 291.37732314 187.3125 281.1875 C186.74282501 280.34402008 186.17315002 279.50054016 185.58621216 278.63150024 C182.62289448 274.24419191 179.6591621 269.85716385 176.6953125 265.47021484 C170.39803954 256.14883603 164.10400011 246.82527613 157.8125 237.5 C157.19172577 236.5799115 156.57095154 235.659823 155.93136597 234.71185303 C148.61590493 223.86730065 141.3223076 213.00942215 134.08203125 202.11450195 C127.86824015 192.77668168 121.5901469 183.48246106 115.3125 174.1875 C114.74648071 173.34933746 114.18046143 172.51117493 113.59729004 171.64761353 C108.07501815 163.47058357 102.55092394 155.29478532 97.02587891 147.11962891 C93.70007964 142.19837322 90.37569045 137.27616733 87.05209351 132.35342407 C85.77806216 130.46698126 84.50351448 128.58088704 83.22842407 126.69515991 C81.44528994 124.05804099 79.66387327 121.41976952 77.8828125 118.78125 C77.36000198 118.00896561 76.83719147 117.23668121 76.29853821 116.44099426 C75.80443954 115.70829819 75.31034088 114.97560211 74.80126953 114.22070312 C74.37862823 113.59522583 73.95598694 112.96974854 73.52053833 112.32531738 C71.29275142 108.91842423 69.15742482 105.45187972 67 102 C66.67 206.94 66.34 311.88 66 420 C44.22 420 22.44 420 0 420 C0 309.78 0 199.56 0 86 C22.275 85.505 22.275 85.505 45 85 C46.98 84.01 46.98 84.01 49 83 C49.83573141 76.07396276 47.20552803 72.34556475 43.359375 66.74609375 C42.76905991 65.8594957 42.17874481 64.97289764 41.57054138 64.05943298 C39.64514871 61.17523117 37.6977692 58.30662618 35.75 55.4375 C34.4246337 53.45953679 33.10082892 51.4805264 31.77856445 49.50048828 C28.48428887 44.57437831 25.17309036 39.65994334 21.85577393 34.74932861 C17.71353987 28.61260988 13.59540221 22.45976276 9.48083496 16.30447388 C8.20632843 14.40308936 6.92467075 12.50669768 5.64160156 10.61108398 C4.87943835 9.4777818 4.11738651 8.34440471 3.35546875 7.2109375 C2.70215576 6.24462402 2.04884277 5.27831055 1.37573242 4.28271484 C0 2 0 2 0 0 Z " fill="#6633FF" transform="translate(343,90)"/>
<path d="M0 0 C27.59126555 -0.09047001 55.18241007 -0.16408066 82.77378654 -0.20724869 C95.58638717 -0.22782959 108.39888875 -0.25586436 121.21142578 -0.30175781 C132.3854028 -0.34176283 143.55930804 -0.36746527 154.73335469 -0.37635398 C160.64397074 -0.38154564 166.55438154 -0.39365393 172.46493149 -0.42292023 C178.04141416 -0.45030562 183.6176093 -0.45839875 189.19415283 -0.45243073 C191.22810561 -0.45352071 193.26206918 -0.46133547 195.29596329 -0.4768219 C222.64345708 -0.6746317 244.89113217 5.66939803 265.1875 24.6875 C284.29324191 44.55992497 288.48568546 69.07121554 288.43359375 95.6484375 C288.43816838 97.71619841 288.4434777 99.78395782 288.44947815 101.85171509 C288.45835744 106.16325091 288.45604579 110.474601 288.44604492 114.78613281 C288.43456425 120.26485302 288.45478013 125.74292778 288.48396206 131.22156334 C288.50245797 135.48570716 288.5020051 139.74970011 288.49632454 144.01387405 C288.49617295 146.03174367 288.50208052 148.0496246 288.51461601 150.06745529 C288.65537593 176.43258199 282.21718287 200.65815081 263.23046875 219.95703125 C253.57042397 229.31346628 240.51339155 237.25872126 227.26855469 240.08813477 C226.4666571 240.26103531 225.66475952 240.43393585 224.83856201 240.61207581 C224.23183655 240.74009079 223.62511108 240.86810577 223 241 C223.21601364 241.57221786 223.43202728 242.14443573 223.65458679 242.73399353 C229.90405891 259.30515601 236.02050469 275.92316521 242.0838089 292.56318665 C243.07865544 295.292752 244.07443747 298.0219757 245.0702095 300.75120354 C250.21979003 314.86557937 255.35987186 328.98338661 260.48828125 343.10546875 C260.92167313 344.29876801 261.355065 345.49206726 261.80158997 346.7215271 C265.24215169 356.19507193 265.24215169 356.19507193 266.86990356 360.68029785 C270.92173605 371.84325293 274.983914 383.00159961 279.1328125 394.12890625 C279.44727325 394.97244659 279.76173401 395.81598694 280.08572388 396.68508911 C281.51680769 400.51988085 282.95295285 404.35267811 284.39697266 408.18261719 C284.88444221 409.48242108 285.3719098 410.78222572 285.859375 412.08203125 C286.27670898 413.18780518 286.69404297 414.2935791 287.12402344 415.43286133 C288 418 288 418 288 420 C264.24 420 240.48 420 216 420 C212.7825 411.069375 209.565 402.13875 206.25 392.9375 C199.24074801 373.49409494 192.2158316 354.05665728 185.14672852 334.63491821 C183.93650776 331.30977376 182.72695508 327.98438698 181.51757812 324.65893555 C177.79595425 314.42668365 174.07199435 304.19529951 170.3395586 293.96698666 C168.35781053 288.53537452 166.37966948 283.1024561 164.40386486 277.66867924 C163.21492512 274.39939816 162.0242488 271.13077354 160.82931519 267.86367798 C159.51126774 264.25994392 158.20064132 260.65353679 156.890625 257.046875 C156.49482742 255.96844833 156.09902985 254.89002167 155.6912384 253.77891541 C155.33454575 252.79323074 154.97785309 251.80754608 154.61035156 250.79199219 C154.29761292 249.93418152 153.98487427 249.07637085 153.66265869 248.19256592 C153 246 153 246 153 243 C124.29 243 95.58 243 66 243 C66 301.41 66 359.82 66 420 C44.22 420 22.44 420 0 420 C-0.19847267 382.71631473 -0.36462468 345.43312833 -0.45958797 308.14906583 C-0.4708441 303.7456979 -0.48249302 299.3423311 -0.49438477 294.93896484 C-0.49674556 294.06234721 -0.49910635 293.18572957 -0.50153869 292.28254776 C-0.54068283 278.09510327 -0.61163388 263.90798756 -0.69437516 249.72073801 C-0.778589 235.15937044 -0.8285395 220.59817486 -0.84679645 206.03657377 C-0.85913552 197.05367905 -0.89808104 188.07171364 -0.9712482 179.08910505 C-1.01888439 172.92633224 -1.03318719 166.76403864 -1.0215124 160.60109515 C-1.01575669 157.04690162 -1.0244702 153.49432972 -1.07284927 149.94042587 C-1.12500174 146.08099772 -1.10683826 142.22366341 -1.08229065 138.36392212 C-1.10850622 137.24911173 -1.1347218 136.13430135 -1.16173178 134.98570883 C-1.02860033 127.22915549 1.2607935 123.50339064 6.76488644 118.08470953 C7.50247391 117.39675538 8.24006139 116.70880124 9 116 C10.04999532 114.87731355 11.09213304 113.74706605 12.1171875 112.6015625 C13.03586827 111.60882862 13.95513678 110.61663832 14.875 109.625 C15.90251438 108.51448077 16.9298542 107.4038 17.95703125 106.29296875 C18.71814209 105.46998291 18.71814209 105.46998291 19.49462891 104.63037109 C22.75849255 101.09548925 26.00602989 97.54565964 29.25390625 93.99609375 C31.1728259 91.89976585 33.09822749 89.8096037 35.02734375 87.72265625 C35.52484131 87.18326416 36.02233887 86.64387207 36.53491211 86.08813477 C37.91795185 84.58893905 39.30267326 83.0912952 40.6875 81.59375 C44.78706117 77.30360241 44.78706117 77.30360241 46.25 71.8125 C46.31189416 69.09798661 46.31189416 69.09798661 45 68 C43.58882298 67.87790076 42.17179541 67.82229128 40.75561523 67.79467773 C39.84211304 67.77449585 38.92861084 67.75431396 37.98742676 67.73352051 C37.02091187 67.71704468 36.05439697 67.70056885 35.05859375 67.68359375 C33.73317566 67.65561707 33.73317566 67.65561707 32.38098145 67.6270752 C29.06659351 67.55855448 25.75203398 67.4985485 22.4375 67.4375 C11.3309375 67.2209375 11.3309375 67.2209375 0 67 C0 44.89 0 22.78 0 0 Z M66 66 C66 102.63 66 139.26 66 177 C89.06346973 177.05829087 89.06346973 177.05829087 112.12695312 177.09765625 C121.53525987 177.1095129 130.94353073 177.12343427 140.35180664 177.15087891 C147.20450019 177.17085914 154.05716455 177.18372741 160.90988642 177.18817699 C164.53588224 177.19077654 168.16179461 177.19685493 171.7877636 177.21146011 C175.8428398 177.22766013 179.89777237 177.22797672 183.95288086 177.22705078 C185.14547012 177.23424133 186.33805939 177.24143188 187.56678772 177.24884033 C196.59380246 177.22657436 204.79362578 176.95309174 212 171 C219.46656592 163.3444071 222.10599671 157.65399535 222.14526367 146.81787109 C222.15164352 145.61576996 222.15802338 144.41366882 222.16459656 143.17514038 C222.16570938 141.88757843 222.1668222 140.60001648 222.16796875 139.2734375 C222.17118827 137.92070481 222.17455284 136.56797246 222.17805481 135.21524048 C222.18402816 132.38258052 222.18589672 129.54995097 222.18530273 126.71728516 C222.18520159 123.12013864 222.19881236 119.52319162 222.21607494 115.92609215 C222.22729984 113.13077941 222.2292187 110.33551316 222.22869301 107.54018021 C222.23041928 105.57961812 222.24119768 103.61907055 222.25224304 101.65853882 C222.40364614 85.87951864 222.40364614 85.87951864 216 72 C206.3575249 65.45200716 196.20910233 65.85296991 184.97460938 65.88647461 C183.68596985 65.88632858 182.39733032 65.88618256 181.06964111 65.8860321 C177.55781599 65.88574669 174.04602543 65.89160191 170.5342083 65.89860606 C166.85601861 65.90488234 163.17782801 65.90544677 159.49963379 65.90663147 C152.54419664 65.90973222 145.58877532 65.91792861 138.63334513 65.92798096 C129.2275826 65.94127787 119.82181571 65.94665215 110.41604614 65.95248318 C95.61068559 65.9618694 80.80535842 65.98179669 66 66 Z " fill="#6633FF" transform="translate(5763,90)"/>
<path d="M0 0 C27.59126555 -0.09047001 55.18241007 -0.16408066 82.77378654 -0.20724869 C95.58638717 -0.22782959 108.39888875 -0.25586436 121.21142578 -0.30175781 C132.3854028 -0.34176283 143.55930804 -0.36746527 154.73335469 -0.37635398 C160.64397074 -0.38154564 166.55438154 -0.39365393 172.46493149 -0.42292023 C178.04141416 -0.45030562 183.6176093 -0.45839875 189.19415283 -0.45243073 C191.22810561 -0.45352071 193.26206918 -0.46133547 195.29596329 -0.4768219 C222.64345708 -0.6746317 244.89113217 5.66939803 265.1875 24.6875 C284.29324191 44.55992497 288.48568546 69.07121554 288.43359375 95.6484375 C288.43816838 97.71619841 288.4434777 99.78395782 288.44947815 101.85171509 C288.45835744 106.16325091 288.45604579 110.474601 288.44604492 114.78613281 C288.43456425 120.26485302 288.45478013 125.74292778 288.48396206 131.22156334 C288.50245797 135.48570716 288.5020051 139.74970011 288.49632454 144.01387405 C288.49617295 146.03174367 288.50208052 148.0496246 288.51461601 150.06745529 C288.65537593 176.43258199 282.21718287 200.65815081 263.23046875 219.95703125 C253.57042397 229.31346628 240.51339155 237.25872126 227.26855469 240.08813477 C226.4666571 240.26103531 225.66475952 240.43393585 224.83856201 240.61207581 C224.23183655 240.74009079 223.62511108 240.86810577 223 241 C223.21601364 241.57221786 223.43202728 242.14443573 223.65458679 242.73399353 C229.90405891 259.30515601 236.02050469 275.92316521 242.0838089 292.56318665 C243.07865544 295.292752 244.07443747 298.0219757 245.0702095 300.75120354 C250.21979003 314.86557937 255.35987186 328.98338661 260.48828125 343.10546875 C260.92167313 344.29876801 261.355065 345.49206726 261.80158997 346.7215271 C265.24215169 356.19507193 265.24215169 356.19507193 266.86990356 360.68029785 C270.92173605 371.84325293 274.983914 383.00159961 279.1328125 394.12890625 C279.44727325 394.97244659 279.76173401 395.81598694 280.08572388 396.68508911 C281.51680769 400.51988085 282.95295285 404.35267811 284.39697266 408.18261719 C284.88444221 409.48242108 285.3719098 410.78222572 285.859375 412.08203125 C286.27670898 413.18780518 286.69404297 414.2935791 287.12402344 415.43286133 C288 418 288 418 288 420 C264.24 420 240.48 420 216 420 C212.7825 411.069375 209.565 402.13875 206.25 392.9375 C199.24074801 373.49409494 192.2158316 354.05665728 185.14672852 334.63491821 C183.93650776 331.30977376 182.72695508 327.98438698 181.51757812 324.65893555 C177.79595425 314.42668365 174.07199435 304.19529951 170.3395586 293.96698666 C168.35781053 288.53537452 166.37966948 283.1024561 164.40386486 277.66867924 C163.21492512 274.39939816 162.0242488 271.13077354 160.82931519 267.86367798 C159.51126774 264.25994392 158.20064132 260.65353679 156.890625 257.046875 C156.49482742 255.96844833 156.09902985 254.89002167 155.6912384 253.77891541 C155.33454575 252.79323074 154.97785309 251.80754608 154.61035156 250.79199219 C154.29761292 249.93418152 153.98487427 249.07637085 153.66265869 248.19256592 C153 246 153 246 153 243 C124.29 243 95.58 243 66 243 C66 301.41 66 359.82 66 420 C44.22 420 22.44 420 0 420 C-0.19847267 382.71631473 -0.36462468 345.43312833 -0.45958797 308.14906583 C-0.4708441 303.7456979 -0.48249302 299.3423311 -0.49438477 294.93896484 C-0.49674556 294.06234721 -0.49910635 293.18572957 -0.50153869 292.28254776 C-0.54068283 278.09510327 -0.61163388 263.90798756 -0.69437516 249.72073801 C-0.778589 235.15937044 -0.8285395 220.59817486 -0.84679645 206.03657377 C-0.85913552 197.05367905 -0.89808104 188.07171364 -0.9712482 179.08910505 C-1.01888439 172.92633224 -1.03318719 166.76403864 -1.0215124 160.60109515 C-1.01575669 157.04690162 -1.0244702 153.49432972 -1.07284927 149.94042587 C-1.12500174 146.08099772 -1.10683826 142.22366341 -1.08229065 138.36392212 C-1.10850622 137.24911173 -1.1347218 136.13430135 -1.16173178 134.98570883 C-1.02860033 127.22915549 1.2607935 123.50339064 6.76488644 118.08470953 C7.50247391 117.39675538 8.24006139 116.70880124 9 116 C10.04999532 114.87731355 11.09213304 113.74706605 12.1171875 112.6015625 C13.03586827 111.60882862 13.95513678 110.61663832 14.875 109.625 C15.90251438 108.51448077 16.9298542 107.4038 17.95703125 106.29296875 C18.71814209 105.46998291 18.71814209 105.46998291 19.49462891 104.63037109 C22.75849255 101.09548925 26.00602989 97.54565964 29.25390625 93.99609375 C31.1728259 91.89976585 33.09822749 89.8096037 35.02734375 87.72265625 C35.52484131 87.18326416 36.02233887 86.64387207 36.53491211 86.08813477 C37.91795185 84.58893905 39.30267326 83.0912952 40.6875 81.59375 C44.78706117 77.30360241 44.78706117 77.30360241 46.25 71.8125 C46.31189416 69.09798661 46.31189416 69.09798661 45 68 C43.58882298 67.87790076 42.17179541 67.82229128 40.75561523 67.79467773 C39.84211304 67.77449585 38.92861084 67.75431396 37.98742676 67.73352051 C37.02091187 67.71704468 36.05439697 67.70056885 35.05859375 67.68359375 C33.73317566 67.65561707 33.73317566 67.65561707 32.38098145 67.6270752 C29.06659351 67.55855448 25.75203398 67.4985485 22.4375 67.4375 C11.3309375 67.2209375 11.3309375 67.2209375 0 67 C0 44.89 0 22.78 0 0 Z M66 66 C66 102.63 66 139.26 66 177 C89.06346973 177.05829087 89.06346973 177.05829087 112.12695312 177.09765625 C121.53525987 177.1095129 130.94353073 177.12343427 140.35180664 177.15087891 C147.20450019 177.17085914 154.05716455 177.18372741 160.90988642 177.18817699 C164.53588224 177.19077654 168.16179461 177.19685493 171.7877636 177.21146011 C175.8428398 177.22766013 179.89777237 177.22797672 183.95288086 177.22705078 C185.14547012 177.23424133 186.33805939 177.24143188 187.56678772 177.24884033 C196.59380246 177.22657436 204.79362578 176.95309174 212 171 C219.46656592 163.3444071 222.10599671 157.65399535 222.14526367 146.81787109 C222.15164352 145.61576996 222.15802338 144.41366882 222.16459656 143.17514038 C222.16570938 141.88757843 222.1668222 140.60001648 222.16796875 139.2734375 C222.17118827 137.92070481 222.17455284 136.56797246 222.17805481 135.21524048 C222.18402816 132.38258052 222.18589672 129.54995097 222.18530273 126.71728516 C222.18520159 123.12013864 222.19881236 119.52319162 222.21607494 115.92609215 C222.22729984 113.13077941 222.2292187 110.33551316 222.22869301 107.54018021 C222.23041928 105.57961812 222.24119768 103.61907055 222.25224304 101.65853882 C222.40364614 85.87951864 222.40364614 85.87951864 216 72 C206.3575249 65.45200716 196.20910233 65.85296991 184.97460938 65.88647461 C183.68596985 65.88632858 182.39733032 65.88618256 181.06964111 65.8860321 C177.55781599 65.88574669 174.04602543 65.89160191 170.5342083 65.89860606 C166.85601861 65.90488234 163.17782801 65.90544677 159.49963379 65.90663147 C152.54419664 65.90973222 145.58877532 65.91792861 138.63334513 65.92798096 C129.2275826 65.94127787 119.82181571 65.94665215 110.41604614 65.95248318 C95.61068559 65.9618694 80.80535842 65.98179669 66 66 Z " fill="#6633FF" transform="translate(1974,90)"/>
<path d="M0 0 C1.35215817 -0.00572256 2.70431152 -0.01269398 4.05645752 -0.02079773 C7.68489189 -0.0385407 11.31308196 -0.03759638 14.94154644 -0.03185534 C17.99255251 -0.02873452 21.04351357 -0.03488799 24.09451318 -0.04089409 C31.30523541 -0.05487711 38.51583903 -0.05343149 45.7265625 -0.04199219 C53.11452595 -0.03052918 60.50212559 -0.04457017 67.89004111 -0.07138866 C74.2786879 -0.09369381 80.66722175 -0.10014967 87.05590463 -0.09431225 C90.85138182 -0.09097511 94.64662632 -0.09313686 98.44207001 -0.11056328 C129.22445213 -0.23825638 153.83185069 3.35233725 177.03222656 25.09155273 C194.14022553 42.88606851 200.4225995 65.64157169 200.13769531 89.86889648 C200.13467407 91.11191528 200.13165283 92.35493408 200.12854004 93.63562012 C200.11304335 98.20435084 200.07116244 102.77296164 200.03222656 107.34155273 C199.97035156 117.59217773 199.90847656 127.84280273 199.84472656 138.40405273 C178.06472656 138.40405273 156.28472656 138.40405273 133.84472656 138.40405273 C133.46972656 115.65405273 133.46972656 115.65405273 133.36669922 108.54956055 C133.64391644 90.75550438 133.64391644 90.75550438 127.84472656 74.40405273 C127.84472656 73.74405273 127.84472656 73.08405273 127.84472656 72.40405273 C127.12285156 72.11530273 126.40097656 71.82655273 125.65722656 71.52905273 C123.93263596 70.83921649 122.22004012 70.11703464 120.53222656 69.34155273 C113.71144274 66.96220954 106.33468785 67.255433 99.19702148 67.25878906 C98.16013687 67.25543045 97.12325226 67.25207184 96.0549469 67.24861145 C92.64501734 67.23915335 89.23513715 67.23716095 85.82519531 67.23608398 C83.44159424 67.23286792 81.05799336 67.22950358 78.6743927 67.22599792 C73.6838841 67.22001957 68.69339279 67.2181567 63.70288086 67.21875 C57.32788416 67.21885157 50.95299897 67.20519914 44.57802868 67.18797779 C39.65618893 67.17682552 34.73437588 67.17483178 29.8125248 67.17535973 C27.46314421 67.17418449 25.11376282 67.16978849 22.76439476 67.16202736 C19.46972349 67.15216191 16.17529086 67.15513129 12.88061523 67.16113281 C11.92285187 67.15551331 10.9650885 67.1498938 9.978302 67.144104 C1.66108672 67.1823446 -7.17585578 67.45091762 -14.15527344 72.40405273 C-14.81527344 72.40405273 -15.47527344 72.40405273 -16.15527344 72.40405273 C-16.44402344 73.12592773 -16.73277344 73.84780273 -17.03027344 74.59155273 C-17.72010968 76.31614334 -18.44229153 78.02873917 -19.21777344 79.71655273 C-22.03379659 87.78915243 -21.33864106 96.79063211 -21.34277344 105.21655273 C-21.35501953 106.51915039 -21.36726563 107.82174805 -21.37988281 109.16381836 C-21.39969061 122.29638635 -20.61004868 133.56085233 -11.20605469 143.45483398 C11.17981722 162.94968578 44.88919884 171.19245856 72.2383728 181.09265137 C94.98206115 189.33723587 117.46743607 197.98828877 138.84472656 209.40405273 C140.00230469 210.00088867 141.15988281 210.59772461 142.35253906 211.21264648 C166.73978097 224.33374644 187.95454438 245.37137969 197.01342773 271.81567383 C200.59835215 284.99747508 200.4581406 298.17403454 200.36621094 311.75976562 C200.34344402 315.15630522 200.3569397 318.55158937 200.37998581 321.94808578 C200.54447543 350.55906923 196.56185953 374.42740205 176.23535156 396.03295898 C161.24686695 410.89898865 141.31602798 420.48134552 119.90246582 420.54449463 C118.15346985 420.55305984 118.15346985 420.55305984 116.36914062 420.5617981 C115.10360352 420.56291595 113.83806641 420.56403381 112.53417969 420.56518555 C111.17671577 420.56981928 109.81925314 420.57484468 108.46179199 420.58023071 C104.7836391 420.59330804 101.10550442 420.59979117 97.42733192 420.60424137 C95.12325932 420.6071812 92.81919159 420.61128781 90.51512146 420.61574554 C83.28882386 420.62941161 76.06253752 420.63908118 68.83622789 420.64294744 C60.52768183 420.64741842 52.21930107 420.66492531 43.91080523 420.69394803 C37.46805255 420.71566248 31.02534603 420.72565698 24.5825572 420.72698855 C20.74463497 420.72803013 16.9068683 420.73379775 13.06898499 420.75180817 C9.4508004 420.76845749 5.83288547 420.77036405 2.2146759 420.76166916 C0.27794407 420.76054868 -1.6587795 420.77413726 -3.59545898 420.78842163 C-26.85318353 420.67944416 -48.66390454 411.80419709 -65.15527344 395.40405273 C-79.12620668 380.58828267 -88.30944284 360.41376824 -88.26879883 339.84790039 C-88.26867798 338.54925049 -88.26855713 337.25060059 -88.26843262 335.91259766 C-88.26339856 334.54776968 -88.25823207 333.18294219 -88.25292969 331.81811523 C-88.25192261 330.56603271 -88.25091553 329.3139502 -88.24987793 328.02392578 C-88.24465669 323.35895875 -88.23069543 318.69400479 -88.21777344 314.02905273 C-88.19714844 303.59280273 -88.17652344 293.15655273 -88.15527344 282.40405273 C-66.37527344 282.40405273 -44.59527344 282.40405273 -22.15527344 282.40405273 C-21.78027344 305.71655273 -21.78027344 305.71655273 -21.67724609 313.00683594 C-21.64198802 314.94784835 -21.60606113 316.88884878 -21.56933594 318.82983398 C-21.55797607 319.8099646 -21.54661621 320.79009521 -21.53491211 321.79992676 C-21.27702999 334.77648865 -21.27702999 334.77648865 -16.15527344 346.40405273 C-16.15527344 347.06405273 -16.15527344 347.72405273 -16.15527344 348.40405273 C-15.43339844 348.69280273 -14.71152344 348.98155273 -13.96777344 349.27905273 C-12.24318283 349.96888898 -10.530587 350.69107083 -8.84277344 351.46655273 C-2.02198962 353.84589593 5.35476528 353.55267247 12.49243164 353.54931641 C13.52931625 353.55267502 14.56620087 353.55603363 15.63450623 353.55949402 C19.04443578 353.56895212 22.45431597 353.57094452 25.86425781 353.57202148 C28.24785888 353.57523755 30.63145976 353.57860189 33.01506042 353.58210754 C38.00556902 353.5880859 42.99606034 353.58994876 47.98657227 353.58935547 C54.36156896 353.5892539 60.73645415 353.60290633 67.11142445 353.62012768 C72.03326419 353.63127995 76.95507725 353.63327369 81.87692833 353.63274574 C84.22630892 353.63392098 86.5756903 353.63831698 88.92505836 353.64607811 C92.21972964 353.65594356 95.51416226 353.65297418 98.80883789 353.64697266 C99.76660126 353.65259216 100.72436462 353.65821167 101.71115112 353.66400146 C110.47605919 353.62370248 119.98555058 353.42674384 126.84472656 347.40405273 C134.22499236 338.99875002 133.16029823 326.42830475 133.09472656 315.90405273 C133.10246094 314.66268555 133.11019531 313.42131836 133.11816406 312.14233398 C133.0925779 300.00169893 132.37720322 288.30687298 123.96972656 278.90405273 C118.67078473 273.96284537 112.23406201 270.70425928 105.84472656 267.40405273 C105.18553223 267.06148438 104.52633789 266.71891602 103.84716797 266.3659668 C86.22628896 257.33889438 67.46938981 250.74848594 48.95251465 243.82432556 C29.35409087 236.49556642 9.9443351 228.97147898 -9.15527344 220.40405273 C-10.63181396 219.74711426 -10.63181396 219.74711426 -12.13818359 219.0769043 C-38.9878848 207.05166094 -64.57332002 189.63910568 -79.15527344 163.40405273 C-79.65542969 162.50428711 -80.15558594 161.60452148 -80.67089844 160.67749023 C-87.77516289 146.5117581 -88.81459362 131.18085633 -88.99414062 115.62182617 C-89.03007061 112.670712 -89.09829094 109.72165574 -89.17089844 106.77124023 C-89.7632879 77.23061901 -86.9770378 49.02145549 -66.15527344 26.40405273 C-65.62804688 25.78530273 -65.10082031 25.16655273 -64.55761719 24.52905273 C-48.39494366 6.67157201 -23.24777067 -0.08505004 0 0 Z " fill="#6633FF" transform="translate(2584.1552734375,89.595947265625)"/>
<path d="M0 0 C95.04 0 190.08 0 288 0 C288 21.78 288 43.56 288 66 C214.74 66 141.48 66 66 66 C66.144375 91.348125 66.28875 116.69625 66.4375 142.8125 C66.50215454 154.8313562 66.50215454 154.8313562 66.56811523 167.09301758 C66.61135424 174.25674079 66.61135424 174.25674079 66.65589905 181.42045593 C66.67575066 184.61864862 66.69283425 187.81684342 66.70826721 191.01506042 C66.72802249 195.09041894 66.75244847 199.16572395 66.78030598 203.24103487 C66.78974309 204.73927799 66.79751749 206.23753269 66.80346954 207.73579371 C66.8117255 209.75481962 66.82656912 211.77381543 66.84178162 213.7928009 C66.84823417 214.92568448 66.85468672 216.05856806 66.8613348 217.22578144 C66.87991409 220.08719907 66.87991409 220.08719907 68 223 C71.20370711 223.58781725 71.20370711 223.58781725 75 223 C76.99428472 221.49757923 78.54214819 219.82158201 80.21484375 217.96875 C81.88757173 216.12399092 83.60172104 214.54468218 85.5 212.9375 C89.55934919 209.43887803 93.46647149 205.78982083 97.375 202.125 C102.37448541 197.44002118 107.37144851 192.7580505 112.53103065 188.24845028 C115.01497183 186.04738031 115.01497183 186.04738031 117.185812 183.6582346 C121.54323643 179.17573612 124.78579378 176.45792045 131.1378479 175.91770935 C133.44812522 175.89190306 135.7592949 175.91492071 138.06884766 175.97827148 C139.33827209 175.97695724 140.60769653 175.97564301 141.91558838 175.97428894 C145.36647522 175.97172641 148.81449585 176.02429865 152.26472139 176.08745456 C155.88135674 176.14405827 159.49807182 176.14902959 163.11508179 176.15968323 C169.95065828 176.18755781 176.78492553 176.26127429 183.61992776 176.35182863 C192.86554287 176.47163779 202.11152089 176.51989599 211.35771751 176.57234859 C225.90612399 176.65675082 240.45176885 176.83610477 255 177 C255 198.78 255 220.56 255 243 C192.63 243 130.26 243 66 243 C66 279.63 66 316.26 66 354 C139.26 354 212.52 354 288 354 C288 375.78 288 397.56 288 420 C192.96 420 97.92 420 0 420 C0 281.4 0 142.8 0 0 Z " fill="#6633FF" transform="translate(3540,90)"/>
<path d="M0 0 C95.04 0 190.08 0 288 0 C288 21.78 288 43.56 288 66 C214.74 66 141.48 66 66 66 C66.144375 91.348125 66.28875 116.69625 66.4375 142.8125 C66.50215454 154.8313562 66.50215454 154.8313562 66.56811523 167.09301758 C66.61135424 174.25674079 66.61135424 174.25674079 66.65589905 181.42045593 C66.67575066 184.61864862 66.69283425 187.81684342 66.70826721 191.01506042 C66.72802249 195.09041894 66.75244847 199.16572395 66.78030598 203.24103487 C66.78974309 204.73927799 66.79751749 206.23753269 66.80346954 207.73579371 C66.8117255 209.75481962 66.82656912 211.77381543 66.84178162 213.7928009 C66.84823417 214.92568448 66.85468672 216.05856806 66.8613348 217.22578144 C66.87991409 220.08719907 66.87991409 220.08719907 68 223 C71.20370711 223.58781725 71.20370711 223.58781725 75 223 C76.99428472 221.49757923 78.54214819 219.82158201 80.21484375 217.96875 C81.88757173 216.12399092 83.60172104 214.54468218 85.5 212.9375 C89.55934919 209.43887803 93.46647149 205.78982083 97.375 202.125 C102.37448541 197.44002118 107.37144851 192.7580505 112.53103065 188.24845028 C115.01497183 186.04738031 115.01497183 186.04738031 117.185812 183.6582346 C121.54323643 179.17573612 124.78579378 176.45792045 131.1378479 175.91770935 C133.44812522 175.89190306 135.7592949 175.91492071 138.06884766 175.97827148 C139.33827209 175.97695724 140.60769653 175.97564301 141.91558838 175.97428894 C145.36647522 175.97172641 148.81449585 176.02429865 152.26472139 176.08745456 C155.88135674 176.14405827 159.49807182 176.14902959 163.11508179 176.15968323 C169.95065828 176.18755781 176.78492553 176.26127429 183.61992776 176.35182863 C192.86554287 176.47163779 202.11152089 176.51989599 211.35771751 176.57234859 C225.90612399 176.65675082 240.45176885 176.83610477 255 177 C255 198.78 255 220.56 255 243 C192.63 243 130.26 243 66 243 C66 279.63 66 316.26 66 354 C139.26 354 212.52 354 288 354 C288 375.78 288 397.56 288 420 C192.96 420 97.92 420 0 420 C0 281.4 0 142.8 0 0 Z " fill="#6633FF" transform="translate(1453,90)"/>
<path d="M0 0 C2.75359461 3.38174029 4.67439911 7.06707694 6.60473251 10.95219612 C6.957987 11.65519901 7.31124148 12.3582019 7.67520064 13.08250791 C8.86260672 15.44798691 10.04428092 17.81628285 11.22601318 20.18460083 C12.08281223 21.89446367 12.93995744 23.60415309 13.79741979 25.31368339 C16.15632225 30.01922815 18.5101973 34.72727243 20.86325479 39.43574214 C23.40023988 44.51011972 25.94179835 49.58220603 28.48274231 54.65460205 C33.46067149 64.59383465 38.43414224 74.53529173 43.40586796 84.4776286 C47.4445204 92.55398408 51.48443438 100.62970721 55.52524567 108.70498276 C65.1081129 127.85597022 74.69000165 147.00744538 84.26655197 166.16159248 C84.57283122 166.77418213 84.87911046 167.38677178 85.1946709 168.01792475 C86.74708151 171.1229122 88.29947938 174.22790602 89.85187444 177.33290125 C90.16019713 177.94958652 90.46851982 178.56627179 90.78618562 179.20164449 C91.40968817 180.44873046 92.03318963 181.69581698 92.65669001 182.94290405 C102.3652501 202.36125074 112.08030818 221.77633449 121.80029297 241.18896484 C132.71508712 262.98786609 143.62449075 284.7894511 154.52627778 306.59486091 C160.3010307 318.14503222 166.07826819 329.6939455 171.86186981 341.23968887 C176.78370581 351.06521577 181.70006219 360.8934596 186.60918775 370.7253436 C189.11636904 375.74626865 191.6261711 380.76583932 194.14286995 385.7820015 C196.4428449 390.36636075 198.73552031 394.9542904 201.02222613 399.54528211 C201.85443807 401.21280696 202.68940383 402.87896063 203.52727076 404.54365124 C204.65842004 406.7920138 205.77977825 409.04498623 206.89863205 411.29948616 C207.39943552 412.28618855 207.39943552 412.28618855 207.91035622 413.29282433 C208.66827276 414.83317698 209.34346357 416.41378322 210 418 C209.67 418.66 209.34 419.32 209 420 C165.42607538 408.17818594 128.5060607 389.33831373 105.35945761 349.41464692 C99.77745145 339.67413479 94.66261183 329.70194509 89.671875 319.6484375 C89.33487996 318.97093559 88.99788493 318.29343368 88.65067792 317.59540141 C79.95269561 300.08070078 71.75574753 282.34755897 63.72238207 264.52011704 C59.05409591 254.17279537 54.25463229 243.89404387 49.36425781 233.64990234 C48.84177979 232.55529157 48.84177979 232.55529157 48.30874667 231.43856744 C46.55924275 227.77502807 44.80759093 224.11252056 43.05487204 220.45051837 C28.70028495 190.45206131 14.72227641 160.29307945 1 130 C-1.07246631 132.62496045 -2.66385292 135.14021923 -4.03982449 138.18551064 C-4.41896919 139.017522 -4.79811389 139.84953336 -5.18874782 140.70675719 C-5.80173649 142.07039367 -5.80173649 142.07039367 -6.42710876 143.46157837 C-7.3454614 145.47965482 -8.26390816 147.49768844 -9.18243408 149.51568604 C-9.6723156 150.59659767 -10.16219711 151.67750931 -10.66692352 152.79117584 C-13.35909588 158.72647197 -16.07023315 164.65307138 -18.78611755 170.57754517 C-19.07474174 171.20731904 -19.36336593 171.83709292 -19.66073631 172.48595086 C-24.24578641 182.48308989 -28.90496005 192.44361326 -33.61659241 202.38168335 C-33.93734591 203.058293 -34.25809942 203.73490264 -34.58857273 204.43201561 C-37.9122885 211.44002882 -41.24574652 218.44336266 -44.58790153 225.44259975 C-46.30603317 229.04163955 -48.0217897 232.64180672 -49.73608398 236.24267578 C-50.07720841 236.95910674 -50.41833283 237.6755377 -50.76979435 238.41367869 C-55.54188783 248.44802314 -60.18997753 258.53180645 -64.74391659 268.66690561 C-72.59902137 286.14818529 -80.68661445 303.4999581 -89.21484375 320.6640625 C-89.54501714 321.32997866 -89.87519052 321.99589483 -90.21536916 322.68199027 C-113.62774164 369.78938663 -140.94248217 397.70091636 -191.94750977 415.18505859 C-197.26131569 416.92304734 -202.61112746 418.51250051 -208 420 C-209.18858238 416.43425285 -208.49130545 415.38766556 -206.89574629 412.13452309 C-206.55970127 411.47528228 -206.22365626 410.81604146 -205.87742805 410.13682365 C-205.52769977 409.43129826 -205.17797148 408.72577288 -204.81764537 407.99886793 C-203.63141449 405.61205474 -202.43092851 403.23269701 -201.23049927 400.85299683 C-200.37326245 399.13562946 -199.51690303 397.4178239 -198.66135108 395.69961655 C-196.29849688 390.96072921 -193.92313988 386.228203 -191.5457828 381.49657845 C-188.98773997 376.39995764 -186.44118953 371.29759958 -183.89324951 366.19592285 C-178.89645883 356.19550796 -173.88906269 346.20043922 -168.87823285 336.20705281 C-163.04953642 324.58142807 -157.23175905 312.95035159 -151.41458867 301.31895639 C-141.03876672 280.57338373 -130.65373462 259.83243702 -120.26318359 239.09423828 C-110.16891765 218.9473605 -100.07997944 198.79782788 -89.99755859 178.64501953 C-89.6869465 178.02416991 -89.37633441 177.4033203 -89.05630983 176.76365705 C-86.55764463 171.76933463 -84.05899813 166.77500285 -81.56038626 161.78065374 C-70.50037148 139.67338198 -59.43582712 117.56837738 -48.37056798 95.46373016 C-46.62549077 91.97756076 -44.88052048 88.49133787 -43.13557673 85.00510168 C-37.02907814 72.805111 -30.92126747 60.60578 -24.809698 48.40832864 C-22.28107891 43.36170449 -19.7530675 38.31477858 -17.22674942 33.26700211 C-14.91783843 28.65370737 -12.60708363 24.04134133 -10.29478858 19.42974187 C-9.45488716 17.75386009 -8.61566658 16.07763689 -7.77716555 14.40105401 C-6.64469261 12.13694403 -5.50980713 9.87406047 -4.37425423 7.61149406 C-4.04289154 6.94757092 -3.71152886 6.28364777 -3.37012488 5.59960574 C-1.11416856 1.11416856 -1.11416856 1.11416856 0 0 Z " fill="#6633FF" transform="translate(5318,91)"/>
<path d="M0 0 C21.78 0 43.56 0 66 0 C66.33 132.33 66.66 264.66 67 401 C73.83246366 400.02393376 75.72600256 399.1423447 80.1875 394.625 C81.32508377 393.5242877 82.46311447 392.42403713 83.6015625 391.32421875 C84.16907227 390.76653809 84.73658203 390.20885742 85.32128906 389.63427734 C87.84730297 387.17512419 90.45305027 384.80738099 93.0625 382.4375 C94.05377017 381.53036818 95.04465585 380.62281602 96.03515625 379.71484375 C96.52387207 379.26737793 97.01258789 378.81991211 97.51611328 378.35888672 C100.50392429 375.62276364 103.48981471 372.88454467 106.47607422 370.14672852 C109.11232799 367.72994526 111.74913742 365.3137719 114.38671875 362.8984375 C114.93908203 362.39248047 115.49144531 361.88652344 116.06054688 361.36523438 C117.12548211 360.3897895 118.19057994 359.4145221 119.25585938 358.43945312 C121.660561 356.25411536 121.660561 356.25411536 124 354 C126.11360317 353.90311269 128.2305067 353.87813158 130.34632874 353.87974548 C131.01688575 353.87889106 131.68744276 353.87803663 132.37831968 353.87715632 C134.64164398 353.87549963 136.90489534 353.88102593 139.16821289 353.88647461 C140.78410338 353.88675647 142.39999399 353.88659878 144.0158844 353.8860321 C148.4165224 353.88574407 152.81713339 353.89164171 157.21776509 353.89860606 C161.8115521 353.90483866 166.40533966 353.90544332 170.99913025 353.90663147 C179.70434771 353.90974506 188.40955268 353.91795883 197.11476463 353.92798096 C207.02269918 353.93914123 216.93063431 353.94465233 226.83857358 353.94967639 C247.22572425 353.96014142 267.61285779 353.97848724 288 354 C288 375.78 288 397.56 288 420 C192.96 420 97.92 420 0 420 C0 281.4 0 142.8 0 0 Z " fill="#6633FF" transform="translate(4584,90)"/>
<path d="M0 0 C21.78 0 43.56 0 66 0 C66.33 132.33 66.66 264.66 67 401 C73.83246366 400.02393376 75.72600256 399.1423447 80.1875 394.625 C81.32508377 393.5242877 82.46311447 392.42403713 83.6015625 391.32421875 C84.16907227 390.76653809 84.73658203 390.20885742 85.32128906 389.63427734 C87.84730297 387.17512419 90.45305027 384.80738099 93.0625 382.4375 C94.05377017 381.53036818 95.04465585 380.62281602 96.03515625 379.71484375 C96.52387207 379.26737793 97.01258789 378.81991211 97.51611328 378.35888672 C100.50392429 375.62276364 103.48981471 372.88454467 106.47607422 370.14672852 C109.11232799 367.72994526 111.74913742 365.3137719 114.38671875 362.8984375 C114.93908203 362.39248047 115.49144531 361.88652344 116.06054688 361.36523438 C117.12548211 360.3897895 118.19057994 359.4145221 119.25585938 358.43945312 C121.660561 356.25411536 121.660561 356.25411536 124 354 C126.11360317 353.90311269 128.2305067 353.87813158 130.34632874 353.87974548 C131.01688575 353.87889106 131.68744276 353.87803663 132.37831968 353.87715632 C134.64164398 353.87549963 136.90489534 353.88102593 139.16821289 353.88647461 C140.78410338 353.88675647 142.39999399 353.88659878 144.0158844 353.8860321 C148.4165224 353.88574407 152.81713339 353.89164171 157.21776509 353.89860606 C161.8115521 353.90483866 166.40533966 353.90544332 170.99913025 353.90663147 C179.70434771 353.90974506 188.40955268 353.91795883 197.11476463 353.92798096 C207.02269918 353.93914123 216.93063431 353.94465233 226.83857358 353.94967639 C247.22572425 353.96014142 267.61285779 353.97848724 288 354 C288 375.78 288 397.56 288 420 C192.96 420 97.92 420 0 420 C0 281.4 0 142.8 0 0 Z " fill="#6633FF" transform="translate(4062,90)"/>
<path d="M0 0 C95.04 0 190.08 0 288 0 C288 21.78 288 43.56 288 66 C251.37 66 214.74 66 177 66 C177 182.82 177 299.64 177 420 C155.22 420 133.44 420 111 420 C110.66894524 382.69097787 110.39213178 345.38334752 110.23402006 308.07327554 C110.21526079 303.6626173 110.19584583 299.25196218 110.17602539 294.84130859 C110.17012341 293.52425701 110.17012341 293.52425701 110.16410219 292.18059832 C110.09893702 277.98719545 109.98072886 263.79470942 109.84270806 249.60184938 C109.70213848 235.0246694 109.61905666 220.44796757 109.58867258 205.87013769 C109.56814993 196.88346455 109.50348685 187.89938309 109.381253 178.91350842 C109.30159284 172.74069955 109.27807905 166.56921845 109.29747934 160.39593363 C109.3070345 156.83986023 109.2930365 153.28829293 109.21191788 149.73303413 C108.70286785 126.27970152 108.70286785 126.27970152 116.25636524 117.58058786 C118.79581805 115.03458819 121.43536069 112.69910606 124.24249637 110.45335865 C126.65288539 108.46009976 128.65883169 106.18583713 130.6875 103.8125 C133.55957772 100.59490917 136.45805859 97.40526506 139.38696289 94.23950195 C140.41448417 93.12817403 141.43974417 92.01475075 142.46264648 90.89916992 C144.92958784 88.21239818 147.41830609 85.56130979 149.98828125 82.97265625 C150.89964844 82.03292969 151.81101562 81.09320313 152.75 80.125 C153.56984375 79.30257812 154.3896875 78.48015625 155.234375 77.6328125 C157.49780261 74.25770142 157.33253473 71.98063634 157 68 C153.70828099 66.90276033 151.25975977 66.86152833 147.7928009 66.84178162 C146.49289719 66.8319928 145.19299347 66.82220398 143.85369873 66.81211853 C142.41003455 66.80621431 140.96636998 66.80040387 139.52270508 66.79467773 C138.00503777 66.78509928 136.48737313 66.77508922 134.9697113 66.76467896 C130.84607059 66.73762028 126.72241842 66.71661592 122.59873796 66.69667697 C118.29055072 66.67482337 113.98239884 66.64743161 109.67424011 66.62062073 C101.51452049 66.57068538 93.35478125 66.52574967 85.19502324 66.48259836 C75.90611071 66.43323319 66.61723366 66.37831239 57.32835543 66.32291877 C38.21893507 66.20908579 19.10948213 66.10298305 0 66 C0 44.22 0 22.44 0 0 Z " fill="#6633FF" transform="translate(3018,90)"/>
<path d="M0 0 C95.04 0 190.08 0 288 0 C288 21.78 288 43.56 288 66 C251.37 66 214.74 66 177 66 C177 182.82 177 299.64 177 420 C155.22 420 133.44 420 111 420 C110.66894524 382.69097787 110.39213178 345.38334752 110.23402006 308.07327554 C110.21526079 303.6626173 110.19584583 299.25196218 110.17602539 294.84130859 C110.17012341 293.52425701 110.17012341 293.52425701 110.16410219 292.18059832 C110.09893702 277.98719545 109.98072886 263.79470942 109.84270806 249.60184938 C109.70213848 235.0246694 109.61905666 220.44796757 109.58867258 205.87013769 C109.56814993 196.88346455 109.50348685 187.89938309 109.381253 178.91350842 C109.30159284 172.74069955 109.27807905 166.56921845 109.29747934 160.39593363 C109.3070345 156.83986023 109.2930365 153.28829293 109.21191788 149.73303413 C108.70286785 126.27970152 108.70286785 126.27970152 116.25636524 117.58058786 C118.79581805 115.03458819 121.43536069 112.69910606 124.24249637 110.45335865 C126.65288539 108.46009976 128.65883169 106.18583713 130.6875 103.8125 C133.55957772 100.59490917 136.45805859 97.40526506 139.38696289 94.23950195 C140.41448417 93.12817403 141.43974417 92.01475075 142.46264648 90.89916992 C144.92958784 88.21239818 147.41830609 85.56130979 149.98828125 82.97265625 C150.89964844 82.03292969 151.81101562 81.09320313 152.75 80.125 C153.56984375 79.30257812 154.3896875 78.48015625 155.234375 77.6328125 C157.49780261 74.25770142 157.33253473 71.98063634 157 68 C153.70828099 66.90276033 151.25975977 66.86152833 147.7928009 66.84178162 C146.49289719 66.8319928 145.19299347 66.82220398 143.85369873 66.81211853 C142.41003455 66.80621431 140.96636998 66.80040387 139.52270508 66.79467773 C138.00503777 66.78509928 136.48737313 66.77508922 134.9697113 66.76467896 C130.84607059 66.73762028 126.72241842 66.71661592 122.59873796 66.69667697 C118.29055072 66.67482337 113.98239884 66.64743161 109.67424011 66.62062073 C101.51452049 66.57068538 93.35478125 66.52574967 85.19502324 66.48259836 C75.90611071 66.43323319 66.61723366 66.37831239 57.32835543 66.32291877 C38.21893507 66.20908579 19.10948213 66.10298305 0 66 C0 44.22 0 22.44 0 0 Z " fill="#6633FF" transform="translate(931,90)"/>
<path d="M0 0 C21.78 0 43.56 0 66 0 C66 138.6 66 277.2 66 420 C44.22 420 22.44 420 0 420 C0 281.4 0 142.8 0 0 Z " fill="#6633FF" transform="translate(43,90)"/>
</svg>
